<svg xmlns="http://www.w3.org/2000/svg" viewBox="0 0 750 500"><g id="freepik--background-complete--inject-2"><path d="M547.28,60.36c.66-4.82-6.15-8.79-11.26-9.2-2.44-.2-5,.17-7.28-.63-5-1.75-7-8.22-11.9-10.28-3.65-1.54-7.85-.17-11.39,1.62s-7,4-11,4.27c-3.44.22-7.18-1-10.19.63-2.24,1.25-3.42,3.84-5.48,5.36s-4.67,1.81-7.17,1.95-5.11.16-7.4,1.2-4.17,3.47-3.7,5.94Z" style="fill:#f5f5f5"></path><path d="M723.59,95.19c.66-4.82-6.14-8.79-11.26-9.2-2.44-.2-5,.17-7.28-.63-5-1.75-7-8.22-11.89-10.28-3.65-1.54-7.86-.17-11.4,1.62s-7,4-11,4.27c-3.44.22-7.17-1-10.18.63-2.25,1.25-3.42,3.84-5.49,5.36s-4.66,1.81-7.17,2-5.11.16-7.39,1.2-4.18,3.47-3.71,5.94Z" style="fill:#ebebeb"></path><path d="M369.42,80.41c1.28-9.3-11.84-16.94-21.7-17.74-4.7-.38-9.58.34-14-1.21-9.65-3.36-13.51-15.83-22.93-19.8-7-3-15.14-.33-22,3.11S275.23,52.52,267.6,53c-6.63.43-13.83-2-19.64,1.21-4.32,2.41-6.58,7.39-10.57,10.33s-9,3.49-13.82,3.75-9.85.31-14.25,2.33-8,6.67-7.14,11.43Z" style="fill:#e0e0e0"></path><path d="M397.93,72.66c.76-5.54-7.06-10.1-12.93-10.58-2.81-.22-5.72.21-8.37-.72-5.75-2-8.05-9.43-13.67-11.8-4.19-1.77-9-.2-13.09,1.85s-8.09,4.62-12.63,4.92c-4,.25-8.25-1.22-11.71.71-2.58,1.44-3.93,4.41-6.3,6.16s-5.36,2.08-8.24,2.24-5.87.19-8.5,1.39-4.79,4-4.25,6.81Z" style="fill:#e0e0e0"></path><path d="M427.26,148.66c.8-5.78-7.36-10.54-13.49-11-2.92-.24-6,.21-8.73-.75-6-2.1-8.4-9.85-14.25-12.32-4.38-1.84-9.42-.2-13.66,1.94s-8.44,4.82-13.18,5.12c-4.13.27-8.6-1.26-12.21.75-2.69,1.5-4.1,4.6-6.58,6.43s-5.59,2.17-8.59,2.33-6.13.19-8.87,1.45-5,4.15-4.43,7.11Z" style="fill:#e0e0e0"></path><path d="M45.1,280.23V292H37v17.32l10.69,9.42L37,326.08v135H96.54V316.91h-5.6v-10.7h5.6V285.83H89.41l-1-12.22h8.15V243.05H72.6v-9.68H93.49v-8.15l-20.89-2V208.41H93.49L88.9,196.69l-16.3-3.06V176.31H62.92v17.83H55.28V176.31H47.64v17.83H37v86.09Zm9.67-75.9,9.17,2v13.75H54.77Z" style="fill:#ebebeb"></path><path d="M183.66,242.6l-65.38-2.74-3.66,51.66,5.49,1.83.46,14.63L117.37,318l2.74,4.57,1.37,25.61,4.12,4.11,1.37,9.14-5,5v16.92l-7.32,15.09,2.29,49.37h66.75V334.5L179.09,329l4.57-4.57ZM163,280.32h-8.81V263.8l8.81-2Zm4.56,0V263.8l8,1.09.82,15.43Z" style="fill:#ebebeb"></path><path d="M252.7,119.62c-5.88,25.95-11,70.7-3.44,96.21,13.11,44.35,61.46,68.57,83.87,109a105.52,105.52,0,0,1,6,87.86l16.1,1.51c10.42-23,20.15-46.65,23.31-71.67s-.9-51.83-15.94-72.08c-6.1-8.22-14-15.43-17.54-25-4.51-12.21-.87-26.45,7.2-36.66s20-16.78,32.39-20.74c7.38-2.35,16.81-6.17,16.31-13.89-.22-3.33-2.42-6.15-4.6-8.67a173,173,0,0,0-119-58.75c-5.53-.33-11.28-.34-16.31,2s-9.09,7.57-8.32,13.05" style="fill:#ebebeb"></path><path d="M458.33,439.66c-2.35-5.35-7.51-9.06-13-11s-11.44-2.35-17.28-2.74A32.27,32.27,0,0,0,380.9,405c-5-8.39-17.75-10.82-25.5-4.85l-17,14.12c-.74-9.57-11.78-16.84-20.86-13.74-5.7,1.94-10.15,7.07-16.1,7.92-4.65.67-9.2-1.42-13.83-2.19a25.69,25.69,0,0,0-26.77,14.12c-13.1-1-26.22,8.67-29,21.51-.56,2.55-.66,15.4,1.6,16.69h71.72L442,458.22c4.44,0,9.22-.12,12.83-2.72C459.55,452.08,460.69,445,458.33,439.66Z" style="fill:#ebebeb"></path><polygon points="399.98 272.28 397.47 279.3 404.52 284.66 412.38 274.35 399.98 272.28" style="fill:#e0e0e0"></polygon><polygon points="390.46 363.17 394.13 355.4 400.07 359.29 396.39 365.71 390.46 363.17" style="fill:#e0e0e0"></polygon><polygon points="356.21 260.77 359.89 253.01 365.82 256.89 362.15 263.32 356.21 260.77" style="fill:#e0e0e0"></polygon><polygon points="254.7 295.39 254.7 302.82 265.43 302.82 263.37 295.39 254.7 295.39" style="fill:#e0e0e0"></polygon><path d="M291.51,281.36a103.3,103.3,0,0,1-52.69-34.12c-5.47-6.69-10.23-14.53-10.52-23.16-.38-10.94,6.83-21.21,16.36-26.59s21-6.45,31.86-5.34S298,196.41,308.59,199c27.62,6.81,57.74,9.86,83.77-1.62.05,5.12-4,9.31-8.21,12.26-14.22,10-32.46,12.59-49.83,11.76s-34.42-4.77-51.71-6.62c-6.32-.68-12.84-1.06-18.93.76s-11.76,6.23-13.45,12.36c-2.24,8.14,2.85,16.37,8.13,23a186.77,186.77,0,0,0,28,28.16" style="fill:#e0e0e0"></path><path d="M389,289c-1.59-4.78-6.18-8.07-11-9.45s-10-1.17-15-.94l2.85,6.16c4.7-.95,9.25,3.59,9.58,8.38s-2.55,9.31-6.2,12.42-8.08,5.16-12.2,7.63c-8.25,4.94-15.49,11.84-19.82,20.43s-5.53,18.92-2.23,27.95c3.67-13,14.66-22.47,25.34-30.75S382.43,314,387.73,301.6C389.42,297.63,390.41,293.11,389,289Z" style="fill:#e0e0e0"></path><path d="M392.46,183.36s.12.17.34.54l.4.67c.15.28.26.63.42,1a11.69,11.69,0,0,1,.27,7.1,15.58,15.58,0,0,1-2.08,4.77,18.43,18.43,0,0,1-4.14,4.6c-3.51,2.83-8.69,4.2-14.27,4.23s-11.67-1.23-18.07-2.63-13.23-3-20.39-4.79c-14.32-3.53-30-7.74-46.63-11.28-4.16-.88-8.29-1.69-12.36-2.42a114.31,114.31,0,0,0-12.11-1.55,55.86,55.86,0,0,0-11.74.36,35.39,35.39,0,0,0-10.7,3.3A31.79,31.79,0,0,0,227.29,202,33.84,33.84,0,0,0,224,219.65a36.94,36.94,0,0,0,1.56,7.75,42.64,42.64,0,0,0,2.77,6.49,42.08,42.08,0,0,0,6.69,9.11,44.74,44.74,0,0,0,5.41,4.69l1.53,1.06c.35.24.52.38.52.38l-.55-.33c-.35-.23-.89-.56-1.56-1A40.67,40.67,0,0,1,228.1,234a42.75,42.75,0,0,1-2.83-6.53,36.74,36.74,0,0,1-1.61-7.81,34.2,34.2,0,0,1,3.24-17.84,32.2,32.2,0,0,1,14.28-15A35.83,35.83,0,0,1,252,183.48a56.82,56.82,0,0,1,11.84-.38A114.74,114.74,0,0,1,276,184.65q6.12,1.09,12.38,2.42c16.66,3.54,32.33,7.77,46.64,11.33,7.15,1.78,14,3.42,20.37,4.83s12.4,2.69,18,2.68,10.64-1.33,14.1-4.09a18.33,18.33,0,0,0,4.11-4.5,15.37,15.37,0,0,0,2.09-4.69,11.69,11.69,0,0,0-.17-7,9.42,9.42,0,0,0-.4-1l-.37-.69C392.55,183.55,392.46,183.36,392.46,183.36Z" style="fill:#e0e0e0"></path><path d="M361.55,281.08s.09-.08.28-.21l.85-.59a21.28,21.28,0,0,1,3.57-1.77,22.26,22.26,0,0,1,6.13-1.42,23.61,23.61,0,0,1,3.95,0,24.72,24.72,0,0,1,4.35.82,21.73,21.73,0,0,1,8.7,5.09,22.37,22.37,0,0,1,6.07,22.61A33.85,33.85,0,0,1,389,317.72a53.11,53.11,0,0,1-10.11,9.33c-3.6,2.63-7.25,4.88-10.71,7s-6.74,4.21-9.69,6.3-5.63,4.15-8,6.11a132.74,132.74,0,0,0-10.73,9.87c-1.21,1.23-2.13,2.2-2.75,2.87l-.71.75-.25.24s.06-.1.21-.28l.67-.78c.6-.69,1.49-1.69,2.68-2.94a124.93,124.93,0,0,1,10.65-10c2.37-2,5-4.08,8-6.18s6.23-4.2,9.69-6.36,7.09-4.42,10.65-7a52.86,52.86,0,0,0,10-9.25,33.59,33.59,0,0,0,6.4-11.92,22,22,0,0,0-5.88-22.17,21.32,21.32,0,0,0-8.51-5.05,24.56,24.56,0,0,0-4.27-.84,24.3,24.3,0,0,0-3.9,0,22.89,22.89,0,0,0-9.66,3l-.88.54A1.41,1.41,0,0,1,361.55,281.08Z" style="fill:#e0e0e0"></path><path d="M326.9,322.38a14,14,0,0,1-1.71.51,15.82,15.82,0,0,1-5.12.26,18.18,18.18,0,0,1-3.65-.76,22.18,22.18,0,0,1-4-1.83,19.66,19.66,0,0,1-7.36-7.77,23.81,23.81,0,0,1-2.44-12.74,28.92,28.92,0,0,1,5-14,41.71,41.71,0,0,1,11.87-11.47,56.85,56.85,0,0,1,16.19-7.25,60.19,60.19,0,0,1,8.87-1.68,66.35,66.35,0,0,1,8.76-.3,41.89,41.89,0,0,0,8.36-.46,12.34,12.34,0,0,0,6.91-3.59,11.23,11.23,0,0,0,2.06-3.2,13.43,13.43,0,0,0,.92-3.6,14.14,14.14,0,0,0,0-3.62,13.62,13.62,0,0,0-.87-3.39,14,14,0,0,0-1.6-3,17.28,17.28,0,0,0-2.11-2.52,21.23,21.23,0,0,0-5-3.63,29.23,29.23,0,0,0-10.16-3.11,56.39,56.39,0,0,0-8.08-.4c-2.22,0-3.95.12-5.12.17l-1.33.05h-.46l.45-.05,1.33-.1c1.17-.09,2.9-.2,5.13-.27a55.53,55.53,0,0,1,8.12.31A29.54,29.54,0,0,1,362.08,238a21.45,21.45,0,0,1,5.1,3.68,16.39,16.39,0,0,1,2.17,2.56,14.76,14.76,0,0,1,2.57,6.57,14.56,14.56,0,0,1-.91,7.45,11.57,11.57,0,0,1-2.13,3.34,12.71,12.71,0,0,1-7.18,3.76,42.3,42.3,0,0,1-8.45.48,63.61,63.61,0,0,0-8.7.31,58.85,58.85,0,0,0-8.79,1.66A56.81,56.81,0,0,0,319.71,275,41.43,41.43,0,0,0,308,286.28,28.53,28.53,0,0,0,303,300.09a23.54,23.54,0,0,0,2.33,12.53,19.48,19.48,0,0,0,7.19,7.69,21.73,21.73,0,0,0,4,1.84,18.65,18.65,0,0,0,3.59.8,16.5,16.5,0,0,0,5.08-.16c.57-.1,1-.25,1.29-.31Z" style="fill:#e0e0e0"></path><path d="M244.62,122.93s-.09.15-.28.42l-.87,1.19c-.36.54-.74,1.25-1.23,2.06a25.7,25.7,0,0,0-1.25,3,25,25,0,0,0-1.28,8.81,29.12,29.12,0,0,0,2.74,11.43,29.83,29.83,0,0,0,3.68,5.8,32.19,32.19,0,0,0,5.37,5.16,42,42,0,0,0,14.77,7.07,57.94,57.94,0,0,0,18.08,1.67,116.43,116.43,0,0,0,19.37-3c6.56-1.47,12.91-3.2,19.12-4.6a124.52,124.52,0,0,1,18.09-3,69.41,69.41,0,0,1,30.53,4.42,71.92,71.92,0,0,1,10.74,5.18,69,69,0,0,1,7.42,5.1c1.93,1.54,3.38,2.8,4.31,3.71l1.06,1c.24.23.35.36.35.36l-.38-.32-1.1-1c-.95-.89-2.42-2.12-4.36-3.63a69.78,69.78,0,0,0-18.17-10.09A69.44,69.44,0,0,0,341,159.51a126.92,126.92,0,0,0-18,3c-6.19,1.42-12.54,3.14-19.12,4.62a115.8,115.8,0,0,1-19.46,2.95,58.08,58.08,0,0,1-18.23-1.72,42.18,42.18,0,0,1-14.9-7.19,31.83,31.83,0,0,1-5.42-5.25,28.56,28.56,0,0,1-6.4-17.47,24.6,24.6,0,0,1,1.38-8.88,22.67,22.67,0,0,1,1.31-3c.5-.81.9-1.52,1.27-2l.92-1.16C244.51,123.05,244.62,122.93,244.62,122.93Z" style="fill:#e0e0e0"></path><path d="M647.34,215.67V129.58h-10.7V111.75H629v17.83h-7.64V111.75h-9.68v17.32l-16.3,3.06-4.58,11.72h20.88v14.77l-20.88,2v8.15h20.88v9.68H587.74v30.56h8.15l-1,12.22h-7.13v20.38h5.61v10.7h-5.61V396.51h59.6v-135l-10.7-7.39,10.7-9.42V227.39h-8.15V215.67Zm-17.83-60.11h-9.17V141.81l9.17-2Z" style="fill:#ebebeb"></path><path d="M437.87,276.48V288.2h-8.15v17.32l10.7,9.42-10.7,7.39v135h59.6V313.16h-5.6v-10.7h5.6V282.09h-7.13l-1-12.23h8.15V239.3H465.38v-9.68h20.88v-8.15l-20.88-2V204.66h20.88l-4.58-11.72-16.3-3.05V172.57H455.7V190.4h-7.64V172.57h-7.64V190.4h-10.7v86.08Zm9.68-75.9,9.17,2v13.76h-9.17Z" style="fill:#ebebeb"></path><path d="M735.41,172,662.57,169l-4.08,57.56,6.12,2,.51,16.3-3.57,11.21,3.06,5.1,1.53,28.52,4.58,4.59,1.53,10.18-5.6,5.61v18.84l-8.16,16.81,2.55,55h74.37V274.41l-5.09-6.11,5.09-5.1Zm-23.06,42h-9.82V195.64l9.82-2.27Zm5.08,0V195.64l8.9,1.21.91,17.2Z" style="fill:#ebebeb"></path><path d="M221.45,188.69c.83-6-7.63-10.92-14-11.44-3-.24-6.18.22-9.05-.78-6.22-2.17-8.71-10.21-14.78-12.77-4.54-1.91-9.76-.21-14.16,2s-8.75,5-13.67,5.31c-4.28.28-8.92-1.31-12.66.78-2.79,1.56-4.25,4.77-6.82,6.67s-5.79,2.24-8.91,2.41-6.35.2-9.19,1.5-5.19,4.31-4.6,7.38Z" style="fill:#ebebeb"></path></g><g id="freepik--Floor--inject-2"><path d="M724.51,458.82c0,.14-156.49.26-349.49.26S25.49,459,25.49,458.82,182,458.56,375,458.56,724.51,458.67,724.51,458.82Z" style="fill:#263238"></path></g><g id="freepik--Buildings--inject-2"><polygon points="604.42 256.1 698.45 279.87 709.16 284.02 715.87 276.87 607.64 250.69 604.42 256.1" style="fill:#263238"></polygon><path d="M607.64,267.58c-.1-.6,1.59-9.08,1.59-9.08l-.67-8.61-1.35-26.09-6.15,2.35s.69,83.2,0,84.87l9.31,2.67-1.17-41.26C607.85,271.26,607.71,268,607.64,267.58Z" style="fill:#263238"></path><path d="M648.36,293.11c.27-1.71-10.55-93.78-10.55-93.78l4.43-.5L653,294.68Z" style="fill:#263238"></path><path d="M665,301.41c.63-1.7-3.68-94.3-3.68-94.3l6.57-.26,3.77,96.38Z" style="fill:#263238"></path><polygon points="682.93 238.89 632.26 238.89 632.26 233.44 687.23 233.44 682.93 238.89" style="fill:#263238"></polygon><polygon points="604.42 256.1 698.45 279.87 709.16 284.02 715.87 276.87 607.64 250.69 604.42 256.1" style="fill:#263238"></polygon><path d="M607.64,267.58c-.1-.6,1.59-9.08,1.59-9.08l-.67-8.61-1.35-26.09-6.15,2.35s.69,83.2,0,84.87l9.31,2.67-1.17-41.26C607.85,271.26,607.71,268,607.64,267.58Z" style="fill:#263238"></path><path d="M648.36,293.11c.27-1.71-10.55-93.78-10.55-93.78l4.43-.5L653,294.68Z" style="fill:#263238"></path><path d="M665,301.41c.63-1.7-3.68-94.3-3.68-94.3l6.57-.26,3.77,96.38Z" style="fill:#263238"></path><polygon points="682.93 238.89 632.26 238.89 632.26 233.44 687.23 233.44 682.93 238.89" style="fill:#263238"></polygon><polygon points="717.11 379.98 704.1 390.75 714.95 374.86 722.76 359.64 736.08 353.05 736.08 254.16 710.05 267.17 710.05 274.85 671.01 291.75 627.64 280.97 592.22 287.85 592.22 460.22 736.08 460.22 736.08 378.9 723.3 371.9 717.11 379.98" style="fill:#FFC100"></polygon><path d="M530.61,130.57c-1,2.72-3.4,9.48-3.79,10.47s-3.76-7.36-5-10.47h-2.2l-11.57,7.5-6.18,11.85-9.62-1.23-8.85,6.21-1.18,94,5.41,2.53,19-2.53-17.27,8.16-7.47,21.13h0l-1.18,94a1.7,1.7,0,0,1,1,.41c1,1,3.85,8.85,3.85,8.85V413l-5.51,9.05-.46,36.7h99.78V130.57Z" style="fill:#FFC100"></path><path d="M579.37,130.57s12.85,7.56,12.85,9.14V458.78H579.37Z" style="fill:#FFC100"></path><path d="M579.37,130.57s12.85,7.56,12.85,9.14V458.78H579.37Z" style="opacity:0.30000000000000004"></path><rect x="506.6" y="161.18" width="16.5" height="26.01" style="fill:#263238"></rect><rect x="536.46" y="161.18" width="16.5" height="26.01" style="fill:#263238"></rect><rect x="506.6" y="210.79" width="16.5" height="26.01" style="fill:#263238"></rect><rect x="536.46" y="210.79" width="16.5" height="26.01" style="fill:#263238"></rect><rect x="506.6" y="260.41" width="16.5" height="26.01" style="fill:#263238"></rect><rect x="536.46" y="260.41" width="16.5" height="26.01" style="fill:#263238"></rect><rect x="506.6" y="310.02" width="16.5" height="26.01" style="fill:#263238"></rect><rect x="536.46" y="310.02" width="16.5" height="26.01" style="fill:#263238"></rect><rect x="506.6" y="359.64" width="16.5" height="26.01" style="fill:#263238"></rect><rect x="536.46" y="359.64" width="16.5" height="26.01" style="fill:#263238"></rect><rect x="506.6" y="409.25" width="16.5" height="26.01" style="fill:#263238"></rect><rect x="536.46" y="409.25" width="16.5" height="26.01" style="fill:#263238"></rect><polygon points="559.22 458.78 561.14 447.08 569.25 442.17 572.66 422.26 573.94 458.78 559.22 458.78" style="opacity:0.30000000000000004"></polygon><rect x="607.64" y="301.78" width="12.57" height="21.28" style="fill:#263238"></rect><rect x="635.37" y="301.78" width="12.57" height="21.28" style="fill:#263238"></rect><rect x="607.64" y="346.91" width="12.57" height="21.28" style="fill:#263238"></rect><rect x="635.37" y="346.91" width="12.57" height="21.28" style="fill:#263238"></rect><rect x="607.64" y="392.04" width="12.57" height="21.28" style="fill:#263238"></rect><rect x="635.37" y="392.04" width="12.57" height="21.28" style="fill:#263238"></rect><polygon points="640.7 368.19 645.06 379.95 644.34 392.04 647.94 392.04 651.43 384.14 667.61 376.1 660.65 366.39 647.84 360.16 640.7 368.19" style="fill:#263238"></polygon><polygon points="536.46 161.18 542.65 172.85 548.01 165.01 552.96 164.39 552.96 161.18 536.46 161.18" style="fill:#455a64"></polygon><polygon points="536.96 187.19 540.6 183.47 543.88 186.02 545.57 183.47 548.49 187.19 550.18 183.47 552.96 183.47 552.96 187.19 536.96 187.19" style="fill:#455a64"></polygon><polygon points="506.6 236.81 514.85 226.56 514.85 217.43 523.09 210.79 506.6 210.79 506.6 236.81" style="fill:#455a64"></polygon><polygon points="506.6 335.93 514.85 325.68 514.85 316.55 523.09 309.91 506.6 309.91 506.6 335.93" style="fill:#455a64"></polygon><polygon points="536.46 210.79 541.48 219.01 546.04 213.46 552.96 210.79 536.46 210.79" style="fill:#455a64"></polygon><polygon points="657.58 291.62 663.22 282.63 670.46 271.98 672.12 292.45 665.1 299.98 657.58 291.62" style="fill:#FFC100"></polygon><polygon points="643.63 413.32 652.26 432.14 646.59 460.22 650.22 460.22 655.89 431.24 643.63 413.32" style="opacity:0.30000000000000004"></polygon><polygon points="613.4 346.91 609.01 339.88 611.84 323.05 620.22 323.05 610.99 338.89 613.4 346.91" style="opacity:0.30000000000000004"></polygon><polygon points="717.11 379.98 704.1 390.75 714.95 374.86 722.76 359.64 736.08 353.05 736.08 254.16 710.05 267.17 710.05 274.85 672.12 291.27 672.12 460.22 736.08 460.22 736.08 378.9 723.3 371.9 717.11 379.98" style="opacity:0.30000000000000004"></polygon><rect x="503.88" y="414.55" width="21.26" height="4.95" style="fill:#a5655e"></rect><rect x="534.09" y="377.61" width="21.26" height="4.95" transform="translate(103.13 -116.08) rotate(13.42)" style="fill:#a5655e"></rect><rect x="531.62" y="313.97" width="23.56" height="4.95" transform="translate(88.32 -117.52) rotate(13.43)" style="fill:#a5655e"></rect><rect x="501.92" y="175.98" width="23.56" height="4.95" transform="translate(-19.96 73.83) rotate(-8.07)" style="fill:#a5655e"></rect><rect x="502.25" y="167.63" width="23.56" height="4.95" transform="translate(-18.78 73.8) rotate(-8.06)" style="fill:#a5655e"></rect><rect x="532.62" y="224.19" width="23.56" height="4.95" transform="translate(67.5 -120.2) rotate(13.42)" style="fill:#a5655e"></rect><rect x="532.99" y="326.87" width="23.56" height="4.95" transform="translate(-22.27 40.02) rotate(-4.12)" style="fill:#a5655e"></rect><rect x="533.77" y="370.17" width="21.26" height="4.95" transform="translate(21.23 -29.27) rotate(3.14)" style="fill:#a5655e"></rect><rect x="534.13" y="362.89" width="21.26" height="4.95" transform="translate(20.83 -29.3) rotate(3.14)" style="fill:#a5655e"></rect><rect x="503.52" y="428.96" width="21.26" height="4.95" style="fill:#a5655e"></rect><rect x="503.67" y="421.19" width="22.56" height="4.3" transform="translate(-29.01 37.99) rotate(-4.11)" style="fill:#a5655e"></rect><rect x="369.62" y="359.98" width="45.55" height="3.86" style="fill:#263238"></rect><path d="M399.53,344.12c-.21,1.07-2.36,110.78-2.36,110.78h4.07l2.64-110.47Z" style="fill:#263238"></path><path d="M422.5,363.84c-.43,1.5-16.7,55.35-16.7,55.35l3.78,2,17.22-56.57Z" style="fill:#263238"></path><path d="M381.53,355.27c-.43.64,1.29,63.2,1.29,63.2l4.4-.89-2.88-62.31Z" style="fill:#263238"></path><polygon points="361.92 400.45 393.96 403.69 405.1 403.69 421.81 409.9 423.1 406.9 437.46 406.05 452.03 415.48 450.1 456.45 359.65 456.45 357.32 413.33 361.92 400.45" style="fill:#263238"></polygon><polygon points="359.24 354.13 354.11 359.99 352.27 366.74 352.27 457.89 438.07 457.89 438.07 384.56 431.1 383.82 429.27 388.96 417.54 388.96 417.54 395.56 428.9 395.19 428.54 418.66 411.67 418.29 411.67 406.01 404.7 401.89 404.7 419.02 386.74 419.02 386.74 394.82 395.17 394.82 395.17 387.86 388.57 384.92 384.9 384.92 384.9 373.92 377.57 373.92 377.57 382.27 361.44 382.27 361.44 354.13 359.24 354.13" style="fill:#FFC100"></polygon><rect x="361.67" y="394.81" width="15.6" height="24.18" style="fill:#263238"></rect><rect x="361.92" y="428.21" width="14.67" height="22.73" style="fill:#263238"></rect><rect x="412.52" y="428.21" width="14.67" height="22.73" style="fill:#263238"></rect><rect x="359.65" y="430.57" width="19.12" height="4.29" style="fill:#a5655e"></rect><rect x="359.69" y="437.03" width="19.12" height="4.29" transform="translate(-14.63 12.72) rotate(-1.94)" style="fill:#a5655e"></rect><rect x="359.91" y="443.55" width="19.12" height="4.29" transform="translate(74.65 -52.54) rotate(9.04)" style="fill:#a5655e"></rect><polygon points="438.07 384.56 441.26 384.56 441.26 406.56 444.3 409.59 446.4 419.92 454.12 419.92 454.12 400.95 456.9 400.95 456.9 390.67 461.83 390.67 461.83 439.41 461.83 457.89 449.62 457.89 438.07 457.89 438.07 384.56" style="fill:#FFC100"></polygon><polygon points="438.07 384.56 441.26 384.56 441.26 406.56 444.3 409.59 446.4 419.92 454.12 419.92 454.12 400.95 456.9 400.95 456.9 390.67 461.83 390.67 461.83 439.41 461.83 457.89 449.62 457.89 438.07 457.89 438.07 384.56" style="opacity:0.30000000000000004"></polygon><path d="M316.62,378.05l-11.3,9.15L285,391.51l17.91-10.35,11.35-22.38h6.44V310H249.31l-3,19.72-7.15-15.15L230.07,310H156v1.4l-13.41,1.36-10.89,6.61-7.58-6.22s-3.57-1.52-7.17-3.15H76.31l-.58,6.19,3,4.86h9v27.83H59.89v-24l-3.66.8s-5.17,13.1-5.17,13.84v12.31l2.65,6.19v14.58l-2.65,3.62v83.42H320.72V379.92Z" style="fill:#FFC100"></path><rect x="98" y="321.04" width="27.83" height="27.83" style="fill:#263238"></rect><rect x="136.1" y="321.04" width="27.83" height="27.83" style="fill:#263238"></rect><rect x="174.21" y="321.04" width="27.83" height="27.83" style="fill:#263238"></rect><rect x="212.31" y="321.04" width="27.83" height="27.83" style="fill:#263238"></rect><rect x="59.89" y="357" width="27.83" height="27.83" style="fill:#263238"></rect><rect x="98" y="357" width="27.83" height="27.83" style="fill:#263238"></rect><rect x="136.1" y="357" width="27.83" height="27.83" style="fill:#263238"></rect><rect x="174.21" y="357" width="27.83" height="27.83" style="fill:#263238"></rect><rect x="212.31" y="357" width="27.83" height="27.83" style="fill:#263238"></rect><rect x="59.89" y="421.31" width="27.83" height="27.83" style="fill:#263238"></rect><rect x="98" y="421.31" width="27.83" height="27.83" style="fill:#263238"></rect><rect x="136.1" y="421.31" width="27.83" height="27.83" style="fill:#263238"></rect><rect x="174.21" y="421.31" width="27.83" height="27.83" style="fill:#263238"></rect><rect x="212.31" y="421.31" width="27.83" height="27.83" style="fill:#263238"></rect><polygon points="316.62 378.05 305.32 387.2 285.01 391.51 302.93 381.16 314.28 358.78 320.72 358.78 320.72 309.99 249.31 309.99 249.31 459.67 320.72 459.67 320.72 379.92 316.62 378.05" style="opacity:0.30000000000000004"></polygon><rect x="171.87" y="338.29" width="33.03" height="5.32" style="fill:#a5655e"></rect><rect x="171.87" y="327.58" width="33.03" height="5.32" transform="matrix(1, -0.09, 0.09, 1, -29.04, 18.35)" style="fill:#a5655e"></rect><rect x="133.5" y="366.03" width="33.03" height="5.32" transform="translate(-32.67 15.05) rotate(-5.18)" style="fill:#a5655e"></rect><rect x="132.91" y="374.11" width="33.03" height="5.32" transform="translate(43.65 -14.5) rotate(6.51)" style="fill:#a5655e"></rect><rect x="132.91" y="356.76" width="33.03" height="5.32" transform="translate(41.69 -14.62) rotate(6.51)" style="fill:#a5655e"></rect><rect x="46.6" y="393.22" width="209.31" height="19.1" style="fill:#455a64"></rect><path d="M108.91,413a13.37,13.37,0,0,1-4-1.55l2.25-5.09a14.55,14.55,0,0,0,3.31,1.38,13.21,13.21,0,0,0,3.53.51,5.44,5.44,0,0,0,2.07-.28.9.9,0,0,0,.62-.84c0-.44-.27-.76-.81-1a19.31,19.31,0,0,0-2.68-.71,29,29,0,0,1-4-1.08,6.7,6.7,0,0,1-2.78-1.89,5.14,5.14,0,0,1-1.18-3.57,6.13,6.13,0,0,1,1.09-3.55,7.27,7.27,0,0,1,3.27-2.52,13.61,13.61,0,0,1,5.28-.91,18.94,18.94,0,0,1,4.19.46,13.09,13.09,0,0,1,3.63,1.34l-2.1,5.06a13,13,0,0,0-5.78-1.54c-1.79,0-2.69.44-2.69,1.31,0,.41.27.72.8.93a16,16,0,0,0,2.63.66,27,27,0,0,1,4,1,7,7,0,0,1,2.83,1.87,5.06,5.06,0,0,1,1.19,3.56,6,6,0,0,1-1.09,3.53,7.34,7.34,0,0,1-3.27,2.52,13.41,13.41,0,0,1-5.28.93A21.47,21.47,0,0,1,108.91,413Z" style="fill:#e0e0e0"></path><path d="M146.07,392.41v20.72h-7v-7.64h-6.45v7.64h-7V392.41h7v7.34h6.45v-7.34Z" style="fill:#e0e0e0"></path><g style="opacity:0.30000000000000004"><path d="M108.91,418a13.64,13.64,0,0,1-4-1.56l2.25-5.09a14.55,14.55,0,0,0,3.31,1.38,13.24,13.24,0,0,0,3.53.52,5.66,5.66,0,0,0,2.07-.28.91.91,0,0,0,.62-.85c0-.43-.27-.76-.81-1a16.8,16.8,0,0,0-2.68-.71,30.33,30.33,0,0,1-4-1.09,6.7,6.7,0,0,1-2.78-1.89,5.14,5.14,0,0,1-1.18-3.57,6.15,6.15,0,0,1,1.09-3.55,7.25,7.25,0,0,1,3.27-2.51,13.6,13.6,0,0,1,5.28-.92,18.94,18.94,0,0,1,4.19.46,13.09,13.09,0,0,1,3.63,1.34l-2.1,5.07a12.84,12.84,0,0,0-5.78-1.54c-1.79,0-2.69.43-2.69,1.3,0,.41.27.72.8.93a16.8,16.8,0,0,0,2.63.67,25.93,25.93,0,0,1,4,1,6.94,6.94,0,0,1,2.83,1.88,5,5,0,0,1,1.19,3.55,6.1,6.1,0,0,1-1.09,3.54,7.39,7.39,0,0,1-3.27,2.51,13.41,13.41,0,0,1-5.28.93A22,22,0,0,1,108.91,418Z"></path><path d="M146.07,397.34v20.72h-7v-7.64h-6.45v7.64h-7V397.34h7v7.34h6.45v-7.34Z"></path><path d="M197.18,412.78a7.18,7.18,0,0,1-1.15,8.09,7.15,7.15,0,0,1-7.85,2.28,12.3,12.3,0,0,1-4.4-2.56l-2.26-2-3.34,3.84-5.27-4.58,13.58-15.64,7.53,6.53A12.25,12.25,0,0,1,197.18,412.78ZM189,417.14a2.26,2.26,0,0,0,1.71-.88,2.31,2.31,0,0,0,.64-1.82,3.11,3.11,0,0,0-1.2-1.88l-1.92-1.67-3.18,3.67,1.92,1.67A3.11,3.11,0,0,0,189,417.14Z"></path></g><path d="M197.18,407.84a7.2,7.2,0,0,1-1.15,8.1,7.19,7.19,0,0,1-7.85,2.28,12.19,12.19,0,0,1-4.4-2.57l-2.26-2-3.34,3.85L172.91,413l13.58-15.65,7.53,6.54A12.22,12.22,0,0,1,197.18,407.84ZM189,412.21a2.62,2.62,0,0,0,2.35-2.7,3.08,3.08,0,0,0-1.2-1.88L188.23,406l-3.18,3.67,1.92,1.66A3.13,3.13,0,0,0,189,412.21Z" style="fill:#e0e0e0"></path><path d="M108.91,413a13.37,13.37,0,0,1-4-1.55l2.25-5.09a14.55,14.55,0,0,0,3.31,1.38,13.21,13.21,0,0,0,3.53.51,5.44,5.44,0,0,0,2.07-.28.9.9,0,0,0,.62-.84c0-.44-.27-.76-.81-1a19.31,19.31,0,0,0-2.68-.71,29,29,0,0,1-4-1.08,6.7,6.7,0,0,1-2.78-1.89,5.14,5.14,0,0,1-1.18-3.57,6.13,6.13,0,0,1,1.09-3.55,7.27,7.27,0,0,1,3.27-2.52,13.61,13.61,0,0,1,5.28-.91,18.94,18.94,0,0,1,4.19.46,13.09,13.09,0,0,1,3.63,1.34l-2.1,5.06a13,13,0,0,0-5.78-1.54c-1.79,0-2.69.44-2.69,1.31,0,.41.27.72.8.93a16,16,0,0,0,2.63.66,27,27,0,0,1,4,1,7,7,0,0,1,2.83,1.87,5.06,5.06,0,0,1,1.19,3.56,6,6,0,0,1-1.09,3.53,7.34,7.34,0,0,1-3.27,2.52,13.41,13.41,0,0,1-5.28.93A21.47,21.47,0,0,1,108.91,413Z" style="fill:#e0e0e0"></path><path d="M146.07,392.41v20.72h-7v-7.64h-6.45v7.64h-7V392.41h7v7.34h6.45v-7.34Z" style="fill:#e0e0e0"></path><path d="M197.18,407.84a7.2,7.2,0,0,1-1.15,8.1,7.19,7.19,0,0,1-7.85,2.28,12.19,12.19,0,0,1-4.4-2.57l-2.26-2-3.34,3.85L172.91,413l13.58-15.65,7.53,6.54A12.22,12.22,0,0,1,197.18,407.84ZM189,412.21a2.62,2.62,0,0,0,2.35-2.7,3.08,3.08,0,0,0-1.2-1.88L188.23,406l-3.18,3.67,1.92,1.66A3.13,3.13,0,0,0,189,412.21Z" style="fill:#e0e0e0"></path><path d="M222.74,347.91c-2.76-2-5.58-4.05-7.52-6.85s-2.85-6.56-1.47-9.68c1.26-2.81,4.18-4.74,5-7.71.69-2.5-.27-5.21.3-7.73,1.23-5.46,8.77-7.71,9.83-13.2.79-4-2.35-8.19-1.15-12.12.37-1.22,1.15-2.35,1.21-3.63.09-2-1.56-3.57-2.91-5.05-2.56-2.83-4.5-6.72-2.88-10.47a5,5,0,0,1,5.91-3.06c3.51,1,3.8,5.49,6.3,7.83s6.59,2.12,9,4.5c1.85,1.82,2.19,4.63,2.42,7.22.4,4.38,1.45,6.15,1.4,9.62a13.53,13.53,0,0,0,3.64,9.5c4.75,4.95,2.33,10.36.6,16.53a70,70,0,0,1-10.08,20.26c-1.6,2.06-1.92,3.1-6.47,4.84" style="fill:#ebebeb"></path><path d="M238.58,330a4.6,4.6,0,0,0-1-2.16c-.87-.89-2.28-.92-3.34-1.56-2.21-1.33-2.24-4.74-4.29-6.32a3.8,3.8,0,0,0-5.58,1.57,26.66,26.66,0,0,0-.57,3c-.76,3-3.94,4.6-5.89,7a8.33,8.33,0,0,0-1.69,7.4,14.34,14.34,0,0,0,2.7,4.61,20.37,20.37,0,0,0,3.44,3.79,7,7,0,0,0,4.74,1.65l3.71-.37a11.59,11.59,0,0,0,8.64-8.84C240.14,336.54,239.36,333.22,238.58,330Z" style="fill:#FFC100"></path><g style="opacity:0.5"><path d="M238.58,330a4.6,4.6,0,0,0-1-2.16c-.87-.89-2.28-.92-3.34-1.56-2.21-1.33-2.24-4.74-4.29-6.32a3.8,3.8,0,0,0-5.58,1.57,26.66,26.66,0,0,0-.57,3c-.76,3-3.94,4.6-5.89,7a8.33,8.33,0,0,0-1.69,7.4,14.34,14.34,0,0,0,2.7,4.61,20.37,20.37,0,0,0,3.44,3.79,7,7,0,0,0,4.74,1.65l3.71-.37a11.59,11.59,0,0,0,8.64-8.84C240.14,336.54,239.36,333.22,238.58,330Z" style="fill:#fff"></path></g><path d="M237.46,338.77c-.23-.67-.61-1.28-.8-2a18.82,18.82,0,0,1-.27-3,2.75,2.75,0,0,0-1.54-2.42,4.6,4.6,0,0,0-2.42.23c-.81.18-1.82.13-2.23-.58s.14-1.77.36-2.66a3.11,3.11,0,0,0-4.63-3.41c-2,1.19-2.06,4-3.42,5.86a16.73,16.73,0,0,1-2.55,2.35,4.31,4.31,0,0,0-1.69,2.92c0,1,.5,1.93.5,2.91a13.73,13.73,0,0,0-.25,2.61c.43,2.08,3.69,2.3,4.49,4.27a2.67,2.67,0,0,0-.06,2.84c.53.85,2.2.87,3.28,1.13l-.08,0a9.74,9.74,0,0,0,11.44-7.65A6.43,6.43,0,0,0,237.46,338.77Z" style="fill:#FFC100"></path><path d="M236.25,319.18a1.71,1.71,0,1,1-3.41,0,1.71,1.71,0,0,1,3.41,0Z" style="fill:#FFC100"></path><path d="M254.38,352.26c.13.07.21.16.19.2s-.15,0-.28,0-.21-.16-.19-.2S254.25,352.2,254.38,352.26Z" style="fill:#263238"></path><path d="M211.4,259.88a4.91,4.91,0,0,0-1.15.62,3,3,0,0,0-1,1.3l-.6,1.43a3,3,0,0,0-.23,1.6,4.91,4.91,0,0,0,3.56,4c2.76.67,6-1.55,5.77-4.66A4.86,4.86,0,0,0,211.4,259.88Z" style="fill:#e0e0e0"></path></g><g id="freepik--Post--inject-2"><path d="M95.08,241.2a1.76,1.76,0,0,1,.06.45c0,.3.06.74.07,1.3a30.49,30.49,0,0,1-.29,4.78,31.45,31.45,0,0,1-1.74,6.89,8.89,8.89,0,0,1-2.32,3.57,4.51,4.51,0,0,1-4.45.85,9.37,9.37,0,0,1-3.77-2.58,24.34,24.34,0,0,1-2.58-3.34,38.63,38.63,0,0,1-3.26-6.31c-.77-1.87-1.31-3.4-1.68-4.47l-.41-1.23a1.49,1.49,0,0,1-.1-.45,12.16,12.16,0,0,1,.7,1.61c.42,1,1,2.56,1.83,4.4a41.22,41.22,0,0,0,3.32,6.19A25.92,25.92,0,0,0,83,256.11a9.11,9.11,0,0,0,3.56,2.44,4,4,0,0,0,4-.75,8.47,8.47,0,0,0,2.2-3.35,33.3,33.3,0,0,0,1.83-6.78A37.15,37.15,0,0,0,95,243,12.19,12.19,0,0,1,95.08,241.2Z" style="fill:#263238"></path><polygon points="57.11 217.32 68.12 460.75 76.38 460.75 66.75 217.32 57.11 217.32" style="fill:#455a64"></polygon><polygon points="11.89 268.94 11.89 274.69 117.79 275.76 117.79 268.94 11.89 268.94" style="fill:#455a64"></polygon><path d="M52.4,239.08s0,.14-.12.39a4.5,4.5,0,0,1-.54,1,7.32,7.32,0,0,1-3.31,2.66,8.63,8.63,0,0,1-2.9.67,9.09,9.09,0,0,1-3.39-.51,12.89,12.89,0,0,1-6.09-4.75l.47-.16v.19a137.38,137.38,0,0,1-.44,14.12c-.15,1.8-.31,3.26-.44,4.26a9.52,9.52,0,0,1-.26,1.55,8.87,8.87,0,0,1,.06-1.57l.27-4.27c.22-3.6.4-8.58.29-14.08v-.19l0-.84.49.68a12.61,12.61,0,0,0,5.83,4.61,8.35,8.35,0,0,0,6-.05,7.5,7.5,0,0,0,3.29-2.44C52.16,239.59,52.35,239.06,52.4,239.08Z" style="fill:#263238"></path><path d="M49.37,273.71a1.51,1.51,0,0,1,.05.5c0,.38,0,.86,0,1.42a38,38,0,0,1-.28,5.25,16.33,16.33,0,0,1-2.67,7.33,11.56,11.56,0,0,1-3.38,3.21,8.53,8.53,0,0,1-4.84,1.25,11.45,11.45,0,0,1-4.79-1.43,19.42,19.42,0,0,1-3.77-2.71,23.49,23.49,0,0,1-4.86-6.1,21.94,21.94,0,0,1-2-4.87c-.16-.6-.27-1.07-.32-1.39a1.91,1.91,0,0,1-.07-.5c.05,0,.19.66.58,1.83a24.59,24.59,0,0,0,7,10.68,19.89,19.89,0,0,0,3.7,2.61,11,11,0,0,0,4.57,1.36A8.12,8.12,0,0,0,42.86,291a11.45,11.45,0,0,0,3.25-3.05,16.24,16.24,0,0,0,2.69-7.1,47.43,47.43,0,0,0,.45-5.2c0-.57,0-1,.07-1.42A2.8,2.8,0,0,1,49.37,273.71Z" style="fill:#263238"></path><path d="M106.83,273.41a3.68,3.68,0,0,1,0,.45l-.17,1.3c-.16,1.17-.39,2.85-.69,5-.65,4.34-1.6,10.62-3.35,18.27a103.32,103.32,0,0,1-9.45,25.82c-.59,1.16-1.3,2.27-2,3.42a18.18,18.18,0,0,1-2.43,3.26,39.14,39.14,0,0,1-6.4,5.35,42.52,42.52,0,0,1-7.56,4.18A19.25,19.25,0,0,1,66,341.51a31.6,31.6,0,0,1-8.63-2.17,45.29,45.29,0,0,1-7.7-3.92,52.52,52.52,0,0,1-12.11-10.86A67.83,67.83,0,0,1,25,300.13a106.4,106.4,0,0,1-3.48-18.23c-.23-2.18-.36-3.88-.43-5,0-.56-.06-1-.08-1.31s0-.45,0-.45a3.17,3.17,0,0,1,.07.45l.12,1.3c.11,1.15.27,2.84.54,5A109.38,109.38,0,0,0,25.4,300a67.67,67.67,0,0,0,12.48,24.22A52,52,0,0,0,49.9,335a44.18,44.18,0,0,0,7.61,3.86A30.87,30.87,0,0,0,66,341a18.71,18.71,0,0,0,8.59-1,41.56,41.56,0,0,0,7.46-4.13,37.72,37.72,0,0,0,6.32-5.26A31.68,31.68,0,0,0,92.71,324a104.32,104.32,0,0,0,9.51-25.68c1.79-7.62,2.8-13.89,3.51-18.21.34-2.14.6-3.82.79-5,.09-.55.16-1,.22-1.3A2.71,2.71,0,0,1,106.83,273.41Z" style="fill:#263238"></path><path d="M111.52,363.93a5.72,5.72,0,0,1-.07-.89c0-.64,0-1.49-.08-2.57-.06-2.24-.12-5.47-.17-9.46-.1-8-.14-19,0-31.2s.45-23.22.74-31.2c.14-4,.28-7.22.39-9.45.06-1.08.11-1.93.14-2.56a5.36,5.36,0,0,1,.09-.9,6.2,6.2,0,0,1,0,.9c0,.63,0,1.49,0,2.57,0,2.28-.13,5.5-.23,9.45-.19,8-.43,19-.58,31.2s-.16,23.2-.15,31.19c0,3.95,0,7.17,0,9.45,0,1.08,0,1.94,0,2.58A5.61,5.61,0,0,1,111.52,363.93Z" style="fill:#263238"></path><polygon points="23.51 232.29 23.51 238.68 100.62 242.65 100.62 236.32 23.51 232.29" style="fill:#455a64"></polygon></g><g id="freepik--Cloud--inject-2"><path d="M124.88,98.64c.56-4.13-5.26-7.53-9.64-7.88-2.09-.17-4.26.15-6.24-.54-4.28-1.49-6-7-10.18-8.79-3.12-1.32-6.72-.15-9.75,1.38s-6,3.44-9.42,3.66c-2.94.19-6.14-.9-8.72.53C69,88.08,68,90.29,66.24,91.6s-4,1.54-6.14,1.66-4.38.14-6.33,1-3.58,3-3.17,5.08Z" style="fill:#ebebeb"></path><path d="M124.88,98.64l-.36,0-1.09,0-4.24.08L103.46,99l-52.86.63h-.21l0-.21a4.47,4.47,0,0,1,1-3.51,6.56,6.56,0,0,1,3.08-2.14c2.78-1,5.65-.55,8.29-1a7.76,7.76,0,0,0,3.6-1.5A25.1,25.1,0,0,0,69,88.31,7.93,7.93,0,0,1,70.51,87a6,6,0,0,1,1.88-.78,13.33,13.33,0,0,1,3.93-.09,21.28,21.28,0,0,0,3.73.09,13.48,13.48,0,0,0,3.5-.92c2.24-.9,4.27-2.16,6.39-3.13a13.67,13.67,0,0,1,6.59-1.47,7.56,7.56,0,0,1,3.12.93,11.27,11.27,0,0,1,2.44,2c1.4,1.47,2.51,3.06,3.8,4.35a7.84,7.84,0,0,0,4.42,2.45c1.62.26,3.2.12,4.67.23a13.75,13.75,0,0,1,7,2.62A7,7,0,0,1,124.81,97a3.75,3.75,0,0,1,.11,1.25c0,.28,0,.41,0,.41s0-.16,0-.43a4.13,4.13,0,0,0-.16-1.2,7.11,7.11,0,0,0-2.84-3.63A13.74,13.74,0,0,0,115,90.89c-1.45-.1-3,.06-4.7-.19a8.19,8.19,0,0,1-4.63-2.52c-1.33-1.31-2.45-2.9-3.83-4.33A10.73,10.73,0,0,0,99.45,82a7,7,0,0,0-3-.87,13.34,13.34,0,0,0-6.37,1.46c-2.08,1-4.11,2.23-6.4,3.15a13.41,13.41,0,0,1-3.63,1,19.52,19.52,0,0,1-3.82-.08,13.27,13.27,0,0,0-3.78.09,5.84,5.84,0,0,0-3.15,2,27,27,0,0,1-2.74,3,8.39,8.39,0,0,1-3.84,1.61c-2.75.5-5.6.12-8.21,1a6,6,0,0,0-2.84,2,4,4,0,0,0-.87,3.09l-.25-.21,52.68-.41,15.79-.08h5.41Z" style="fill:#263238"></path><path d="M228.51,61.87c.57-4.13-5.25-7.53-9.63-7.88-2.09-.17-4.26.15-6.24-.54-4.28-1.49-6-7-10.18-8.79-3.12-1.32-6.72-.15-9.76,1.38s-6,3.44-9.41,3.66c-2.94.19-6.14-.9-8.72.54-1.92,1.07-2.93,3.28-4.7,4.59s-4,1.54-6.13,1.66-4.38.14-6.33,1-3.58,3-3.17,5.07Z" style="fill:#ebebeb"></path><path d="M228.51,61.87a2.13,2.13,0,0,1-.36,0l-1.09,0-4.23.08-15.74.23-52.85.63H154l0-.21a4.47,4.47,0,0,1,1-3.51A6.56,6.56,0,0,1,158,57c2.77-1,5.64-.55,8.28-1a7.8,7.8,0,0,0,3.61-1.5,25.1,25.1,0,0,0,2.69-2.92,8.17,8.17,0,0,1,1.53-1.34,6.1,6.1,0,0,1,1.89-.78,13.67,13.67,0,0,1,3.93-.09,20.35,20.35,0,0,0,3.73.09,13.1,13.1,0,0,0,3.5-.92c2.24-.9,4.26-2.16,6.38-3.13a13.73,13.73,0,0,1,6.6-1.47,7.42,7.42,0,0,1,3.12.94,10.66,10.66,0,0,1,2.43,2c1.41,1.47,2.52,3.06,3.81,4.35A7.84,7.84,0,0,0,214,53.6c1.62.26,3.19.12,4.67.23a13.93,13.93,0,0,1,7,2.62,7.11,7.11,0,0,1,2.82,3.77,4,4,0,0,1,.11,1.24,2.7,2.7,0,0,1-.05.41v-.43a4.13,4.13,0,0,0-.16-1.2,7.11,7.11,0,0,0-2.84-3.63,13.74,13.74,0,0,0-6.91-2.49c-1.45-.09-3,.06-4.7-.19a8.19,8.19,0,0,1-4.63-2.52c-1.33-1.31-2.45-2.9-3.83-4.33a10.73,10.73,0,0,0-2.35-1.88,7.12,7.12,0,0,0-3-.87,13.38,13.38,0,0,0-6.38,1.46c-2.07,1-4.1,2.23-6.39,3.15a13.41,13.41,0,0,1-3.63,1,19.48,19.48,0,0,1-3.82-.08,13.65,13.65,0,0,0-3.78.09,5.84,5.84,0,0,0-3.15,2,26.16,26.16,0,0,1-2.75,3,8.31,8.31,0,0,1-3.83,1.61c-2.75.5-5.6.12-8.21,1a6,6,0,0,0-2.84,2,4,4,0,0,0-.87,3.09l-.26-.21,52.69-.41,15.79-.08h5.41Z" style="fill:#263238"></path><path d="M222.32,135.84c.81-5.85-7.45-10.66-13.66-11.16-2.95-.24-6,.21-8.83-.77-6.07-2.11-8.5-10-14.43-12.46-4.43-1.87-9.53-.2-13.82,2s-8.54,4.88-13.34,5.19c-4.18.27-8.71-1.28-12.36.76-2.72,1.52-4.15,4.65-6.66,6.5s-5.65,2.19-8.7,2.36-6.19.2-9,1.47-5.06,4.2-4.49,7.19Z" style="fill:#ebebeb"></path><path d="M222.32,135.84s-.17,0-.51,0l-1.56,0-6,.1-22.31.3-74.86.84h-.22l0-.21a6.14,6.14,0,0,1,1.35-4.88,9.09,9.09,0,0,1,4.31-3c3.9-1.33,8-.77,11.73-1.47a11.17,11.17,0,0,0,5.16-2.14,37.81,37.81,0,0,0,3.82-4.15,11.09,11.09,0,0,1,2.15-1.89A8.48,8.48,0,0,1,148,118.3a19.4,19.4,0,0,1,5.53-.13,28.71,28.71,0,0,0,5.31.13,18.93,18.93,0,0,0,5-1.31c3.19-1.28,6-3.08,9-4.44a19.37,19.37,0,0,1,9.3-2.08,10.39,10.39,0,0,1,4.39,1.31,15.49,15.49,0,0,1,3.43,2.77c2,2.07,3.56,4.33,5.4,6.16a11.19,11.19,0,0,0,6.31,3.49c2.3.36,4.53.16,6.61.31a18.59,18.59,0,0,1,5.65,1.33,20.17,20.17,0,0,1,4.27,2.35,12.82,12.82,0,0,1,2.76,2.75,7.54,7.54,0,0,1,1.24,2.56,5.18,5.18,0,0,1,.16,1.76c0,.4-.05.58-.05.58v-.6a5.55,5.55,0,0,0-.21-1.71,7.71,7.71,0,0,0-1.26-2.5,12.84,12.84,0,0,0-2.76-2.67,19.21,19.21,0,0,0-4.24-2.28,18.05,18.05,0,0,0-5.57-1.28c-2.06-.14-4.29.08-6.66-.27a11.6,11.6,0,0,1-6.51-3.56c-1.88-1.85-3.47-4.11-5.43-6.14a15.11,15.11,0,0,0-3.35-2.69,10.1,10.1,0,0,0-4.21-1.24A19,19,0,0,0,173,113c-3,1.36-5.83,3.17-9.06,4.47a18.77,18.77,0,0,1-5.12,1.35,28.69,28.69,0,0,1-5.4-.11,18.29,18.29,0,0,0-5.38.13,7.55,7.55,0,0,0-2.47,1,10.37,10.37,0,0,0-2.06,1.81,37,37,0,0,1-3.87,4.2,11.61,11.61,0,0,1-5.39,2.25c-3.87.71-7.91.17-11.65,1.45a8.72,8.72,0,0,0-4.07,2.84,5.65,5.65,0,0,0-1.25,4.46l-.26-.21,74.7-.63,22.36-.14,6.07,0h2.13Z" style="fill:#263238"></path><path d="M499.4,100.07c.66-4.82-6.15-8.79-11.26-9.2-2.44-.2-5,.18-7.28-.63-5-1.75-7-8.21-11.9-10.27-3.65-1.54-7.85-.17-11.39,1.61s-7,4-11,4.28c-3.44.22-7.18-1.06-10.19.62-2.24,1.25-3.42,3.84-5.48,5.36s-4.66,1.81-7.17,2-5.11.16-7.4,1.21-4.17,3.46-3.7,5.93Z" style="fill:#ebebeb"></path><path d="M499.4,100.07a2.3,2.3,0,0,1-.43,0l-1.27,0-4.95.08-18.39.26-61.73.72h-.21l0-.21a5.11,5.11,0,0,1,1.12-4.06,7.59,7.59,0,0,1,3.57-2.5c3.23-1.1,6.58-.63,9.68-1.21A9.21,9.21,0,0,0,431,91.45,29.25,29.25,0,0,0,434.12,88a9.2,9.2,0,0,1,1.79-1.56,6.78,6.78,0,0,1,2.19-.91,16,16,0,0,1,4.57-.11,23,23,0,0,0,4.37.11,15.5,15.5,0,0,0,4.1-1.08c2.62-1,5-2.53,7.46-3.66a16,16,0,0,1,7.68-1.71,8.76,8.76,0,0,1,3.64,1.08,12.73,12.73,0,0,1,2.83,2.29c1.64,1.72,2.94,3.58,4.45,5.08a9.13,9.13,0,0,0,5.18,2.87c1.9.3,3.74.14,5.45.26a16.32,16.32,0,0,1,8.19,3,8.4,8.4,0,0,1,3.3,4.39,4.47,4.47,0,0,1,.12,1.45c0,.33,0,.48,0,.48s0-.18,0-.5a4.63,4.63,0,0,0-.18-1.4,8.24,8.24,0,0,0-3.31-4.25A16.09,16.09,0,0,0,487.82,91c-1.7-.11-3.54.07-5.49-.22a9.48,9.48,0,0,1-5.39-2.94c-1.55-1.52-2.86-3.38-4.48-5.06a12,12,0,0,0-2.75-2.2,8.19,8.19,0,0,0-3.46-1,15.58,15.58,0,0,0-7.46,1.7c-2.43,1.12-4.8,2.61-7.47,3.68a15.44,15.44,0,0,1-4.23,1.12,23.75,23.75,0,0,1-4.46-.09,15.56,15.56,0,0,0-4.42.1,6.46,6.46,0,0,0-2,.84,9,9,0,0,0-1.68,1.48,29.56,29.56,0,0,1-3.2,3.47,9.61,9.61,0,0,1-4.46,1.87c-3.2.59-6.53.14-9.59,1.19a7,7,0,0,0-3.34,2.33,4.57,4.57,0,0,0-1,3.64l-.26-.21,61.56-.5,18.44-.11h6.77Z" style="fill:#263238"></path><path d="M559.93,97.89a5.72,5.72,0,0,1-.48.46c-.41.35-.85.69-1.3,1-.9.67-1.82,1.32-2.75,1.93l-.69.42-.08,0-.17.12a1.25,1.25,0,0,0-.26.27,2.88,2.88,0,0,0-.28.44,12.52,12.52,0,0,0-.68,1.65c-.38,1.1-.7,2.19-1,3.29a1.35,1.35,0,0,1-.69,1l-1.41,1-1.4,1L548,111a2.25,2.25,0,0,0-.55.6l-11.53-.19h-.15l-.64.27-4.58,1.94-2.45,1-1.23.51-.67.29a2.5,2.5,0,0,0-.94.8,2.41,2.41,0,0,0-.43,1.16l0,.72-.06,1.32-.06,1.11a.2.2,0,0,1,0,.08l0,0-.24.14-1.17.64-.29.16-.21.13a1.44,1.44,0,0,0-.25.18,2.37,2.37,0,0,0-.69,1l-.81,2.58-.4,1.27c-.09.23,0,.05-.14.26l-.4.53-1.61,2.12-1.62,2.11-.4.53-.23.3a2.65,2.65,0,0,0-.27.53,6.32,6.32,0,0,0-.18.8l-.13.65-.25,1.31-.13.65a.38.38,0,0,1-.06.16l-1.84,1.75-.12.11-.08,0a.37.37,0,0,1-.18,0l-1.23-.31-1.31-.33a2.23,2.23,0,0,0-2.09.6,2.19,2.19,0,0,0-.56,1,1.28,1.28,0,0,0,0,.27l0,.19,0,.33-.15,1.32-.14,1.32-.08.66,0,.3a.19.19,0,0,1,0,.1.43.43,0,0,1-.72.11,6.1,6.1,0,0,1-.38-1l-.45-1.25-.23-.63a2.19,2.19,0,0,0-.55-.87,2.05,2.05,0,0,0-.94-.53,2.46,2.46,0,0,0-.41-.07l-.33,0-1.31-.2-.63-.1a.5.5,0,0,1-.17-.05l-.3-.12-1.24-.5-.61-.25-.31-.13-.16-.06-.23-.08a2.12,2.12,0,0,0-1.06,0,5.43,5.43,0,0,0-.73.28l-1.23.52-.61.26-.31.13-.14.05a.57.57,0,0,1-.3,0l-.63-.21-.63-.21-.31-.1a1.69,1.69,0,0,0-.48-.11,2.09,2.09,0,0,0-1,.15,5.16,5.16,0,0,0-.68.41l-4.42,3-1.11.74-.55.37c-.18.11-.41.28-.46.29a.59.59,0,0,1-.32.06,1.23,1.23,0,0,1-.41-.16l-1.21-.56-.6-.28-.3-.14a2.06,2.06,0,0,0-.43-.16,1.63,1.63,0,0,0-.49-.05l-.36,0-.67,0-2.65.18a3.91,3.91,0,0,1-.55,0l-.17,0-.29-.13-1.22-.53a6.86,6.86,0,0,0-.69-.28,1.91,1.91,0,0,0-.95,0,1.77,1.77,0,0,0-.45.18l-.3.17-.28.17c-.71-.11-1.67-.23-2.84-.37h0c-1.66.07-3.73.18-6,.31l-1.25.08h-.15l-.05.14c-.47,1.35-.9,2.62-1.3,3.76-1.24.71-2.26,1.3-3,1.74a6,6,0,0,0-1.11.74,6.68,6.68,0,0,0,1.22-.55c.76-.38,1.84-.94,3.12-1.63l.06,0,0-.07c.41-1.11.86-2.35,1.33-3.66l1.11-.07c2.24-.13,4.31-.27,6-.39,1,.08,1.85.15,2.52.19l-4.54,2.68L464,146.44l-.58.34-.28.17L463,147l-.19.13a1.9,1.9,0,0,0-.57.72l-.25.62L461,151l-.51,1.22-.26.61a.91.91,0,0,1-.25.39,1.56,1.56,0,0,1-.45.26l-.61.27-1.21.56-1.21.55-.28.13a.79.79,0,0,1-.22.06l-.65.06a1.28,1.28,0,0,1-.52,0,.83.83,0,0,1-.39-.21l-.9-.94a2.31,2.31,0,0,0-.61-.51,1.59,1.59,0,0,0-.83-.2,1.69,1.69,0,0,0-.82.23,1.46,1.46,0,0,0-.33.26l-.24.23-1,.91c-.15.14-.34.34-.45.43a1,1,0,0,1-.44.18,6.27,6.27,0,0,1-1.19-.18l-.68-.13a1.68,1.68,0,0,0-.83.12l-2.42,1.13-.26.11-.3.08a1,1,0,0,1-.52,0,1,1,0,0,1-.71-.66c0-.15-.09-.42-.13-.62a6.55,6.55,0,0,0-.16-.69,1.59,1.59,0,0,0-1.19-1l-2.61-.51-.66-.12a1.2,1.2,0,0,0-.38,0h-.33l-1.33,0-2.66,0h-.67a1.24,1.24,0,0,1-.57-.09l-1.25-.45c-.84-.29-1.66-.63-2.51-.89l-2.54-.79-.64-.19a1.94,1.94,0,0,0-.7-.14,1.48,1.48,0,0,0-.71.22,4,4,0,0,0-.53.45L420.42,153l-1,.91a1.29,1.29,0,0,1-1.08.48c-.82-.19-1.7-.47-2.55-.69a2,2,0,0,0-.67-.13,2.27,2.27,0,0,0-.67.15l-1.27.39-1.27.39a3.07,3.07,0,0,0-.64.23,3.77,3.77,0,0,0-.52.44L408.86,157a2.39,2.39,0,0,0-.59,1.19l-.41,1.27-.81,2.53.85-2.52.43-1.26a2.29,2.29,0,0,1,.58-1.15l1.95-1.8a3.18,3.18,0,0,1,.5-.42,2.44,2.44,0,0,1,.61-.21l1.28-.38,1.28-.37a1.62,1.62,0,0,1,1.24,0c.86.24,1.68.52,2.58.73a1.5,1.5,0,0,0,1.27-.52l1-.9,1.95-1.81a4.06,4.06,0,0,1,.48-.4,1.1,1.1,0,0,1,.56-.16,5.19,5.19,0,0,1,1.22.33l2.53.82c.84.28,1.66.62,2.49.92l1.24.47h0c-.28.37-.83,1.2-1.55,2.33-1.23.34-2.75.77-4.4,1.25l-.27.08-.07,0-.05.05c-.94,1.23-1.79,2.37-2.49,3.32a18.28,18.28,0,0,0-3.11.94,21,21,0,0,0,3.26-.6l.07,0,0,0c.73-.91,1.61-2,2.54-3.25l.21-.06c1.67-.5,3.22-1,4.44-1.36l.07,0,0-.06c.71-1.22,1.2-2.13,1.4-2.54a2,2,0,0,0,.58.08h5a1.41,1.41,0,0,1,.28,0l.65.14,2.6.54a1,1,0,0,1,.75.65,4.67,4.67,0,0,1,.13.6c.05.23.07.41.14.68a1.61,1.61,0,0,0,1.14,1.09,1.71,1.71,0,0,0,.81,0l.34-.08A2.53,2.53,0,0,0,444,157l2.41-1.09a1,1,0,0,1,.48-.06l.63.13.65.13a2,2,0,0,0,.77.08,1.75,1.75,0,0,0,.79-.31c.23-.19.34-.32.52-.48l1-.9.24-.22a1.15,1.15,0,0,1,.2-.15.86.86,0,0,1,.44-.12,1,1,0,0,1,.45.11,1.81,1.81,0,0,1,.39.37l.92,1a1.73,1.73,0,0,0,.76.42,2.21,2.21,0,0,0,.8,0l.67-.06a2.09,2.09,0,0,0,.43-.11h0l-.2.12c-.74.47-1.79,1.16-3,2l-2.62.31h-.09l0,.06-1.4,1.55,0,0v.05l0,.09c-.34,1.2-.67,2.34-1,3.41l-1.81.33-.09,0-.05.08c-.58,1.15-1.06,2.11-1.38,2.78a4.7,4.7,0,0,0-.45,1.08,4.8,4.8,0,0,0,.64-1c.37-.63.87-1.53,1.48-2.63l1.86-.29.13,0,0-.12c.32-1.1.68-2.29,1-3.53l0,0,1.29-1.47,2.59-.34h.05l0,0c1.24-.87,2.27-1.61,3-2.13l.86-.66.72-.32,1.22-.54.61-.27a2,2,0,0,0,.69-.4,1.87,1.87,0,0,0,.49-.7l.26-.61.54-1.22,1.07-2.43.26-.61a.86.86,0,0,1,.26-.31l.08-.06.15-.08.29-.16.57-.33,2.32-1.32,4.62-2.63.58-.33.27-.15.17-.07a.73.73,0,0,1,.36,0,5.3,5.3,0,0,1,.53.23l1.21.55.32.14a1.57,1.57,0,0,0,.47.13,3.84,3.84,0,0,0,.78,0l2.66-.13.66,0h.31l.16,0a.64.64,0,0,1,.19.08l.3.14.6.29,1.19.58a2.28,2.28,0,0,0,.84.28,1.94,1.94,0,0,0,1-.14,4.9,4.9,0,0,0,.68-.4l.55-.36,1.12-.72,4.47-2.88c.46-.31.51-.34.74-.32l.16,0,.31.11.63.22.63.22a2.11,2.11,0,0,0,1,.11,2.63,2.63,0,0,0,.5-.14l.3-.13.62-.25L497,140c.51-.22.57-.24.76-.19l2.38,1,.3.13a3.3,3.3,0,0,0,.47.15l.68.11,1.32.22.32.05.25,0a.53.53,0,0,1,.2.13.47.47,0,0,1,.14.24l.21.63.44,1.26.22.63a2.48,2.48,0,0,0,.42.84,2.15,2.15,0,0,0,2,.8,2.19,2.19,0,0,0,1.71-1.27,2,2,0,0,0,.16-.53l.05-.37.08-.66.16-1.32.17-1.32,0-.33a1.09,1.09,0,0,1,0-.19.42.42,0,0,1,.1-.17.39.39,0,0,1,.36-.09l1.26.34,1.34.36a3.08,3.08,0,0,0,.53,0l-.72,1.26,0,.05,0,.05,1.13,3.43c0,.65,0,1.34,0,2.07l-3.17,1.28-.11,0,0,.12c-.19,1-.38,2-.57,3.08l0,.18c-.62,1.29-1.22,2.54-1.77,3.71h0c-.47,1.43-.9,2.77-1.3,4l-1.73,1.33-.05,0v.06c-.19,1.37-.35,2.52-.48,3.4a6.87,6.87,0,0,0-.11,1.26,7.2,7.2,0,0,0,.29-1.23c.16-.87.36-2,.6-3.31l1.76-1.29.05,0,0-.06,1.37-4,1.79-3.72v-.05l0-.21c.18-1,.36-2,.53-3l3.17-1.31.12-.06v-.13c0-.79,0-1.54,0-2.24v-.06l-1.22-3.37c.26-.51.48-1,.68-1.37a1.78,1.78,0,0,0,.39-.07,2.21,2.21,0,0,0,.52-.24,2.56,2.56,0,0,0,.39-.32l1-.9.48-.45.25-.22.12-.12a1.89,1.89,0,0,0,.2-.2,2.29,2.29,0,0,0,.49-1l.14-.65.27-1.3.13-.65c0-.19.11-.53.11-.5l0-.06.17-.23.41-.52,1.65-2.09,1.64-2.09.41-.52a2.74,2.74,0,0,0,.48-.91l.42-1.26.82-2.48a.16.16,0,0,1,.06-.08l0,0,.08,0,.29-.15,1.17-.63.34-.18a3.05,3.05,0,0,0,.49-.38,2.58,2.58,0,0,0,.6-1.07c0-.1,0-.2.06-.3l0-.25,0-.33,0-.66.09-1.33,0-.61a.09.09,0,0,1,0-.07.07.07,0,0,1,.06,0l.56-.23,1.23-.5,2.47-1,2.46-1,1.24-.5.61-.25.34-.14.09-.05,10.86.33v1.24a1.59,1.59,0,0,1-.38,1.31l-1,1.4-.24.35c-.08.12-.16.31-.24.46a3.53,3.53,0,0,0-.16.44l-.13.41-.5,1.62-.25.79a1.31,1.31,0,0,1-.34.52,2.29,2.29,0,0,1-.62.38l-.76.38-3,1.54-.38.19a2.26,2.26,0,0,0-.43.28,2.2,2.2,0,0,0-.63.82l-.59,1.63-1.14,3.2-.29.8a1.43,1.43,0,0,1-.34.59,2,2,0,0,1-.6.4l-.76.38-1.52.77c-.26.14-.48.23-.78.41a2.19,2.19,0,0,0-.7.72,2.16,2.16,0,0,0-.3.95,2.73,2.73,0,0,0,.11.94l.38,1.66.37,1.66.19.83a2.13,2.13,0,0,0,.4.88,2.27,2.27,0,0,0,.75.61l.74.42.74.41a2.29,2.29,0,0,1,.64.42,1.61,1.61,0,0,1,.38.61c.06.21.1.52.16.79l.29,1.67.3,1.68.15.83a2.13,2.13,0,0,0,.36.88l1,1.38a1.44,1.44,0,0,1,.22.7v1.68a3.17,3.17,0,0,0,.07.9,2,2,0,0,0,.43.83c.18.19.34.33.51.48-.21.21-.63.68-1.21,1.36-.81.95-1.94,2.3-3.24,3.89h-2.35l0,.14c-.15.34-.3.7-.45,1.07l-1,2.48v0h0c-.06.23-.11.45-.16.66a27,27,0,0,0-3.07-.15h-.09l-.07.07-.53.55a18.05,18.05,0,0,0-2.62,3.06,17.72,17.72,0,0,0,3-2.75l.46-.49a26.66,26.66,0,0,0,2.94-.14c-.45,1.89-.82,3.54-1.08,4.75a13.24,13.24,0,0,0-.4,2.23,13.35,13.35,0,0,0,.67-2.16c.37-1.37.87-3.29,1.42-5.51.32-.78.67-1.6,1-2.46l.38-.93h2.26L535,162c1.3-1.64,2.41-3.06,3.18-4.07.53-.71.9-1.22,1.06-1.47l.07.06,1.25,1.15a3.33,3.33,0,0,1,.56.57,3.36,3.36,0,0,1,.31.74,16.44,16.44,0,0,1,.54,1.58,1.64,1.64,0,0,1-.06.76,3,3,0,0,1-.38.7l-1.82,2.88-.45.72a2.15,2.15,0,0,0-.35.82c-.06.61,0,1.15,0,1.72a13.32,13.32,0,0,1,0,1.68c-.15.51-.39,1-.57,1.58a1.89,1.89,0,0,0,.21,1.71c.17.26.4.42.52.66a1.74,1.74,0,0,1,.24.77,4.46,4.46,0,0,1-.44,1.59l-.59,1.6c-.19.53-.42,1-.58,1.6a1.9,1.9,0,0,0,.45,1.62l5.09,4.51-5-4.56a1.82,1.82,0,0,1-.41-1.55c.16-.52.4-1,.59-1.58l.61-1.59a4.37,4.37,0,0,0,.47-1.65,2,2,0,0,0-.25-.85,6.22,6.22,0,0,0-.52-.67,1.72,1.72,0,0,1-.17-1.54c.19-.54.42-1,.6-1.61a16.67,16.67,0,0,0,.06-1.72c0-.55,0-1.15,0-1.67a5,5,0,0,1,.78-1.44l1.85-2.85a3.85,3.85,0,0,0,.43-.78,1.88,1.88,0,0,0,.08-.91,16.83,16.83,0,0,0-.53-1.65,3.81,3.81,0,0,0-.35-.82,3.25,3.25,0,0,0-.61-.66l-1.23-1.16c-.2-.19-.44-.4-.6-.57a1.7,1.7,0,0,1-.34-.67,3.25,3.25,0,0,1,0-.79V152.5a1.94,1.94,0,0,0-.28-.91l-1-1.42a1.62,1.62,0,0,1-.27-.68l-.14-.84-.28-1.68-.27-1.67c-.06-.29-.07-.54-.17-.88a2.15,2.15,0,0,0-.5-.83,3.18,3.18,0,0,0-.76-.53l-.74-.42-.74-.42a1.57,1.57,0,0,1-.55-.46,1.48,1.48,0,0,1-.29-.65l-.18-.83-.35-1.66-.35-1.66a2,2,0,0,1-.09-.74,1.45,1.45,0,0,1,.69-1.13c.19-.11.49-.25.73-.37l1.53-.75.76-.38a2.68,2.68,0,0,0,.81-.53,2.26,2.26,0,0,0,.52-.86l.3-.79,1.18-3.19.58-1.56a1.48,1.48,0,0,1,.68-.69l.38-.19,3-1.5.77-.37a3.73,3.73,0,0,0,.83-.51,2.36,2.36,0,0,0,.59-.87l.27-.84.52-1.61.13-.41a2.1,2.1,0,0,1,.14-.35c.06-.09.08-.17.15-.29l.25-.35,1-1.39a2.81,2.81,0,0,0,.48-.88,3.32,3.32,0,0,0,.1-1v-2.54a1.19,1.19,0,0,1,.15-.58,1.3,1.3,0,0,1,.39-.45l.69-.46,1.42-.94,1.41-.94a2.47,2.47,0,0,0,.77-.72,2.85,2.85,0,0,0,.4-1c.31-1.08.64-2.16,1-3.2a11.75,11.75,0,0,1,.63-1.48,1.27,1.27,0,0,1,.17-.27l0,0s0,0,0,0l.11-.06c.28-.15.52-.3.76-.46,1-.62,1.92-1.26,2.85-1.93.46-.34.92-.69,1.38-1.07l.88-.64a24.64,24.64,0,0,1,3.21.69l1.63.46.41.12a2.25,2.25,0,0,0,.58.08,2.38,2.38,0,0,0,1.14-.23,2.56,2.56,0,0,0,.88-.67l.58-.63.29-.31a1.71,1.71,0,0,1,.21-.19,1.14,1.14,0,0,1,.47-.19c.13,0,.47,0,.74,0h4.25c.3,0,.51,0,.9,0a2.62,2.62,0,0,0,1.13-.35l2.87-1.91,1.41-.95c.24-.15.5-.34.6-.38a1.09,1.09,0,0,1,.47-.08.67.67,0,0,1,.24,0l.11,0,.18.08.78.34,1.56.69,1.55.68.41.18a3,3,0,0,0,.6.17,2.67,2.67,0,0,0,1.22-.1,2.57,2.57,0,0,0,.56-.26l.39-.26.7-.48,1.4-1,5.61-3.85,5.6-3.85,1.4-1a2.8,2.8,0,0,0,1.19-2.2V82.37a.49.49,0,0,0,0-.11,1.46,1.46,0,0,1,0-.2.83.83,0,0,1,.56-.52l13-3.81.41-.12a3.46,3.46,0,0,0,.58-.23,2.93,2.93,0,0,0,1-.87,2.77,2.77,0,0,0,.51-1.24,6.48,6.48,0,0,0,0-1l0-3.4V68.35a.73.73,0,0,1,.09-.32.64.64,0,0,1,.1-.13l.26-.26.6-.59,1.21-1.2,1.21-1.19.6-.6a3.17,3.17,0,0,0,.4-.44,2.77,2.77,0,0,0,.35-.6,3,3,0,0,0,.2-.66c0-.12,0-.23,0-.35V59.67a.4.4,0,0,1,0-.15.64.64,0,0,1,.15-.25l0-.05.15-.12.33-.26,1.33-1.06,1.38-1.11a3.08,3.08,0,0,0,.79-1.16,2.73,2.73,0,0,0,.18-.68,3.5,3.5,0,0,0,0-.6l0-6.79V44.05l0-1.68,0-.83,0-.39V41a.16.16,0,0,1,0,.09l-2.47-.82a2.86,2.86,0,0,0-.09.51l0,.24v.46l0,.88V44l0,3.41.11,6.81v.24l0,.14a.78.78,0,0,1-.16.24l-1.26,1L627,57l-.32.27-.19.15-.25.24a3,3,0,0,0-.68,1.21,2.7,2.7,0,0,0-.12.69v2.33a.22.22,0,0,1,0,.08.57.57,0,0,1,0,.14.39.39,0,0,1-.08.14,1.27,1.27,0,0,1-.17.19l-.6.6-1.19,1.21-1.2,1.21-.59.61-.34.34a2.68,2.68,0,0,0-.39.56,2.92,2.92,0,0,0-.35,1.32v2.58l0,3.4c0,.71,0,.77-.13,1a.85.85,0,0,1-.26.24,1,1,0,0,1-.21.08l-.41.12-13,4a2.82,2.82,0,0,0-1.8,1.75,2.73,2.73,0,0,0-.14.63,1.72,1.72,0,0,0,0,.32v1a.9.9,0,0,1-.37.7l-1.38,1L597.21,89l-5.55,3.92-1.39,1-.7.49a1.52,1.52,0,0,1-.51.31,1,1,0,0,1-.46,0,.9.9,0,0,1-.22-.06l-.37-.16-1.57-.66-1.56-.67-.78-.33-.21-.09-.28-.1a2.51,2.51,0,0,0-.61-.1,2.68,2.68,0,0,0-1.18.23,4,4,0,0,0-.49.28l-.35.25-1.4,1-2.76,1.89a1.14,1.14,0,0,1-.47.16H571.3a7,7,0,0,0-1,0,2.52,2.52,0,0,0-1.08.45,3.19,3.19,0,0,0-.42.38l-.28.31-2-2.1-1-1.09c-.19-.19-.28-.32-.62-.62a3.39,3.39,0,0,0-3.31-.61l-1.42.53-2.14.8L557,93c-.5-.68-1-1.58-1.63-2.6s-1.33-2.16-2.09-3.41l0,0-.05,0-1.62-.72c-.09-1.08-.18-2.21-.28-3.39v-.17l-.17,0-5.79-1-1.66-.3-4.89-5.09-.12-.13-.14.1c-3.29,2.25-6,4.1-7.71,5.31l-1.86.87a3.15,3.15,0,0,0-.64.33,3.11,3.11,0,0,0,.68-.23l1.92-.77h0c1.74-1.12,4.42-2.89,7.67-5.06,1.48,1.55,3.09,3.25,4.79,5l0,0h.08l1.73.31,5.63,1c.11,1.16.21,2.28.3,3.34v.12l.11,0,1.69.72c.77,1.22,1.48,2.33,2.12,3.33s1.18,1.89,1.71,2.55l1.1,1.43-.56.21-5.64,2.1-.7.26-.35.13-.21.07a1.21,1.21,0,0,1-1.1-.33l-.2-.25-.23-.29-.48-.58a3.25,3.25,0,0,0-.8-.72,3.16,3.16,0,0,0-2.08-.45,7.07,7.07,0,0,0-.79.19,1.18,1.18,0,0,1-.42,0,1.25,1.25,0,0,1-.75-.39,1.09,1.09,0,0,1-.13-.17.31.31,0,0,1-.05-.1l-.08-.16a3.26,3.26,0,0,0-.62-.85,3.09,3.09,0,0,0-2.41-.86l-.4.05-.74.09-3,.36-.29,0-.23,0a1.2,1.2,0,0,1-.45-.15,1.73,1.73,0,0,1-.21-.13l-.29-.24-.59-.46L531.73,90c-.22-.16-.34-.28-.65-.49a2.78,2.78,0,0,0-.92-.39,3,3,0,0,0-1.9.2l-2.73,1.17a1.84,1.84,0,0,1-.52.1l-.33,0a2.57,2.57,0,0,0-.48,0,2.83,2.83,0,0,0-1.71.83l-2,2.29-1,1.12a1.67,1.67,0,0,1-1,.52l-1.48.29-.73.15a6.68,6.68,0,0,0-.8.18,2.68,2.68,0,0,0-1.41,1.11,2.65,2.65,0,0,0-.34.84,5.36,5.36,0,0,0-.08.82,2.24,2.24,0,0,1-.28,1.24,1.75,1.75,0,0,1-.94.76l-1.39.57a2.82,2.82,0,0,1-1.29.35l-3-.18-12-.73c-.49,0-1,0-1.48-.1a2.08,2.08,0,0,1-1.21-.68c-.57-.79-1.14-1.64-1.71-2.45l-3.42-5,3.28,5c.56.84,1.08,1.67,1.66,2.52a2.33,2.33,0,0,0,1.35.8c.52.07,1,.09,1.51.14l12,1.06,3,.26a2.56,2.56,0,0,0,.87-.09l.1,0c-.08.18-.19.45-.34.81L509.23,106l-7.91,3.54-5.25,1.15-3.14.71-6.3-5.43-.06-.05h-.08l-4.82.86-1.32.27a1.45,1.45,0,0,0-.45.12,1.52,1.52,0,0,0,.47,0l1.33-.17,4.76-.7,6.26,5.52.08.07.11,0,3.26-.71,5.26-1.18h0l7.93-3.7.06,0,0-.06c.42-1.22.77-2.23,1-3,.14-.42.23-.71.28-.9l.55-.2,1.41-.53a2.68,2.68,0,0,0,1.37-1.06,2.88,2.88,0,0,0,.35-.83c.06-.31.06-.56.09-.81s0-.5.08-.67a1.65,1.65,0,0,1,.24-.54,1.71,1.71,0,0,1,.92-.69c.16,0,.43-.08.68-.13l.74-.13,1.48-.25a2.82,2.82,0,0,0,1.62-.79l1-1.13,2-2.19a1.56,1.56,0,0,1,1-.44h.26l.42,0a3.11,3.11,0,0,0,1-.15l2.83-1.12a1.5,1.5,0,0,1,1-.1,2.47,2.47,0,0,1,1,.64l2.32,1.92.57.48.29.24a3,3,0,0,0,.41.29,3.38,3.38,0,0,0,1,.36,3,3,0,0,0,.52,0,3.1,3.1,0,0,0,.46,0l3-.28.75-.08.35,0h.23a1.25,1.25,0,0,1,.78.39,1.26,1.26,0,0,1,.24.36l.09.18c0,.08.08.16.12.24a3.36,3.36,0,0,0,.31.43,3.14,3.14,0,0,0,1.83,1,3.2,3.2,0,0,0,1.07,0c.42-.09.54-.14.68-.15a1.18,1.18,0,0,1,.79.2,1,1,0,0,1,.3.29l.46.6.23.3.27.34a3.31,3.31,0,0,0,.86.68,3.12,3.12,0,0,0,2.14.34,4.18,4.18,0,0,0,.51-.13l.36-.13.71-.24,5.69-2,2.84-1,1.41-.48a1,1,0,0,1,.65,0c.23.1.27.17.69.63l1,1.11,1.09,1.19-1.08-.29a27.18,27.18,0,0,0-3.44-.69,4.46,4.46,0,0,0-.53,0,1.13,1.13,0,0,0-.49.15.78.78,0,0,0-.22.2Z" style="fill:#e0e0e0"></path><path d="M555.18,102.85Z" style="fill:#e0e0e0"></path><path d="M704.07,149.42a5.54,5.54,0,0,1-1.45-.69,6.59,6.59,0,0,1-1-1.24l-2-2.62-3.88-5.26c-.34-.44-.63-.87-1-1.32a2.85,2.85,0,0,0-1.47-.87l-3.17-.8-1.59-.4a12.44,12.44,0,0,0-1.64-.35l-3.27,0h-2.46a2.51,2.51,0,0,1-.72-.11,2.47,2.47,0,0,1-1.19-.82l-.55-.61a5.68,5.68,0,0,0-.6-.61,3.07,3.07,0,0,0-.76-.47l-.74-.35-1.47-.72-1.46-.7a14.27,14.27,0,0,1-1.24-1l-2.54-2-1.28-1a2.42,2.42,0,0,1-.86-1.09l-2.28-6.12-1.15-3.06a2.22,2.22,0,0,1-.14-1.31,2.25,2.25,0,0,1,.23-.61,3.35,3.35,0,0,0,.38-.85,3.17,3.17,0,0,0,0-2,5.05,5.05,0,0,0-.37-.8l-.36-.73-.37-.74a3.12,3.12,0,0,0-.56-.8,3.31,3.31,0,0,0-1.72-.95,10.86,10.86,0,0,0-1.75-.07l-1.62,0a2,2,0,0,1-1.15-.41,1.8,1.8,0,0,1-.43-.44l-.47-.67-.47-.66-.23-.34a4,4,0,0,0-.33-.39,3.35,3.35,0,0,0-1.76-1l-3.22-.6-1.6-.3a2.57,2.57,0,0,1-1.15-.62L644.53,101l-.65-.47a2,2,0,0,1-.4-.42,12.59,12.59,0,0,1-.63-1.34l-1.33-3-.34-.77a3.55,3.55,0,0,0-.61-.88L639.41,93l-1.83-1.86a1.94,1.94,0,0,0-.07-.33c0-.1-.08-.21-.12-.31l-.09-.2-.74-1.61-.16-.34a1.94,1.94,0,0,1,0-.2.74.74,0,0,1,0-.21.34.34,0,0,1,0-.1l0-.15.9-3.42.91-3.41.22-.86a4.77,4.77,0,0,0,.14-1.13l0-1.77,0-2.79a4.94,4.94,0,0,0,.42.87,4.65,4.65,0,0,0,2.09,1.78c.49.22,1,.3,1.46.56a4.36,4.36,0,0,1,1.29,1,5,5,0,0,0,3.17,2.08c.66.11,1.35.19,2,.32a4.44,4.44,0,0,1,1.78.91,17.76,17.76,0,0,1,1.46,1.61l1.48,1.71,1.48,1.72a8.71,8.71,0,0,0,.8.81,9.18,9.18,0,0,1,.78.71,4.38,4.38,0,0,1,1,3.68,8.24,8.24,0,0,1-.64,1.78l-.73,1.68a4.68,4.68,0,0,0-.08,3.33c.8,1.86,1.5,3.31,2,4.33.22.47.41.86.56,1.17s.2.4.22.39a2.87,2.87,0,0,0-.14-.43l-.48-1.2-1.83-4.37a4.34,4.34,0,0,1,.13-3.08l.74-1.66a9.63,9.63,0,0,0,.63-1.64c.12.09.3.21.52.39.45.35,1.09.87,1.86,1.53l0,0h.06l3.38,0,1,2.2c1,2.19,1.94,4.18,2.66,5.65v0h0a20.6,20.6,0,0,0,1.9,2.52,18.69,18.69,0,0,0-1.61-2.7c-.65-1.5-1.55-3.5-2.55-5.69-.38-.8-.74-1.58-1.08-2.32l-.06-.13h-.14l-3.46,0a15.16,15.16,0,0,0-2.52-1.72l0-.12a4.79,4.79,0,0,0-1.13-4.05,8.39,8.39,0,0,0-.83-.76,9.09,9.09,0,0,1-.74-.77l-1.48-1.71c-.5-.58-1-1.15-1.48-1.72a19.4,19.4,0,0,0-1.51-1.65,4.89,4.89,0,0,0-2-1c-.72-.14-1.37-.2-2-.31a4.61,4.61,0,0,1-3-1.92,4.71,4.71,0,0,0-1.41-1.06,14.57,14.57,0,0,0-1.49-.54,4.43,4.43,0,0,1-2-1.63,4.5,4.5,0,0,1-.62-1.38v-.09l0-1.78c0-.23,0-.46-.07-.69l-.1-.43-.19-.86-.78-3.45-.39-1.72-.19-.83a.83.83,0,0,1,0-.35l.91-3.41.45-1.71a3.61,3.61,0,0,0,.12-.61,3.47,3.47,0,0,0,0-.72,3.87,3.87,0,0,0-.38-1.18l-1.43-3.23-.34-.78a.67.67,0,0,1,0-.31.63.63,0,0,1,0-.19l.11-.43.22-.85,1.81-6.83-2.52-.65-1.73,6.85-.21.86-.11.42a3.32,3.32,0,0,0-.11.69,3.11,3.11,0,0,0,.26,1.41l.37.83,1.47,3.21a1.8,1.8,0,0,1,.19.49v.16c0,.07,0,.07,0,.26l-.44,1.71-.86,3.42a3.06,3.06,0,0,0,0,1.41l.21.89.41,1.72.82,3.43.2.86.1.43a.52.52,0,0,0,0,.18v7.06a2.61,2.61,0,0,1,0,.61l-.22.86-.86,3.42-.87,3.43c0,.06,0,.16-.06.28s0,.22-.05.33a3.87,3.87,0,0,0,0,.68,3.69,3.69,0,0,0,.18.65l.12.25.09.2.75,1.6.1.2,0,.09a1.55,1.55,0,0,1,0,.21.87.87,0,0,1,0,.42.89.89,0,0,1-.23.35l-.63.55-2.67,2.32-2.66,2.31-.7.61a2.85,2.85,0,0,0-.72,1.09c0,.1-.07.21-.1.31l0,.21-.11.43a1,1,0,0,1-.2.41,1,1,0,0,1-.37.28,6.13,6.13,0,0,1-.69.2l-1.71.45-.9.23a3,3,0,0,0-1.11.65,2.93,2.93,0,0,0-.86,1.7.84.84,0,0,1-.06.24,1,1,0,0,1-.66.65l-1.68.57-3.34,1.13-1.67.57a2.85,2.85,0,0,0-1.06.58,3.06,3.06,0,0,0-.4.44l-.27.35-1.22,1.55c-.39,0-1.21-.11-2.34-.16a5.53,5.53,0,0,0-2.85.38,4.82,4.82,0,0,0-2.45,2.55,7.69,7.69,0,0,0-.27.9,4.3,4.3,0,0,1-.26.79,4.5,4.5,0,0,1-.88,1.31c-.75.7-1.51,1.33-2.09,1.86a14.33,14.33,0,0,0-1.88,1.81,16.81,16.81,0,0,0,2.08-1.56c.63-.52,1.36-1.09,2.18-1.82a4.69,4.69,0,0,0,1-1.42,4.26,4.26,0,0,0,.3-.87,7.27,7.27,0,0,1,.25-.83,4.53,4.53,0,0,1,2.21-2.34,5.54,5.54,0,0,1,2.66-.45c1.06,0,1.84,0,2.26,0l-.88,1.12-2.18,2.77-.27.35a2.88,2.88,0,0,0-.32.5,2.65,2.65,0,0,0-.31,1.15l-.11,1.76-.23,3.53-.12,1.76,0,.43a.86.86,0,0,1-.05.27,1.77,1.77,0,0,1-.33.57c-.66,1-1.35,2-2,2.87-.08.07-.09.12-.21.23l-.33.29-.66.58-1.33,1.18-1.32,1.17-.66.59a2.49,2.49,0,0,0-.69.93,8.08,8.08,0,0,0-.28,1l-.21.86-.44,1.71-.21.86a2.71,2.71,0,0,0-.09,1.12,1.92,1.92,0,0,0,.15.57c-.2,0-.41,0-.66,0a1.87,1.87,0,0,0-1.3.74l-2.27,2.94a1.49,1.49,0,0,1-.79.47,2.54,2.54,0,0,1-.52,0,2.25,2.25,0,0,0-.62.15,2.52,2.52,0,0,0-.95.81c-.26.3-.51.61-.77.92a5.74,5.74,0,0,1-.77.83,1.59,1.59,0,0,1-1,.26h-2.2a2,2,0,0,0-1.77,1.1l-.87,1.5c-.53.91-1,1.66-1.24,2.18a4.47,4.47,0,0,0-.4.83,3.46,3.46,0,0,0,.55-.74c.33-.49.8-1.21,1.36-2.11l.92-1.47a1.59,1.59,0,0,1,1.45-.87h2.2a2,2,0,0,0,1.23-.33,5.59,5.59,0,0,0,.86-.91l.77-.92a2,2,0,0,1,.79-.69,1.31,1.31,0,0,1,.47-.12,2.68,2.68,0,0,0,.59-.07,1.93,1.93,0,0,0,1-.62l2.2-3a1.65,1.65,0,0,1,1.08-.68c.26,0,.5,0,.73,0a2.64,2.64,0,0,0,.15.29l.46.75c.34.57.73,1,1.07,1.47l1.07,1.41,1.07,1.41a6.36,6.36,0,0,1,.46.64l.41.77.81,1.57a1.37,1.37,0,0,1,0,1.2l-3.23,6.27a2.59,2.59,0,0,0-.25,1l-.07.88-.14,1.76-.07.88a2.81,2.81,0,0,0,.08,1.06,2.45,2.45,0,0,0,1.42,1.57l3.2,1.48,1.58.73a1.41,1.41,0,0,1,.5.44,1.8,1.8,0,0,1,.17.31l.18.4,1.42,3.23a10.38,10.38,0,0,1,.63,1.58l.44,1.71.88,3.42.21.86.11.42.05.35v5.3c0,.6,0,1.14,0,1.8a2.38,2.38,0,0,0,.33,1c.19.28.36.49.53.73l2.08,2.86c.33.47.72,1,1,1.41a1.78,1.78,0,0,1,.1,1.49L613.41,198a4.69,4.69,0,0,0-.18.92,6.27,6.27,0,0,0,.11.92l.29,1.74.57,3.48.15.88a2.87,2.87,0,0,0,.24.9,5,5,0,0,0,.53.75l.53.7,2.16,2.8c.17.24.37.47.5.7a1.7,1.7,0,0,1,.21.77,1.92,1.92,0,0,1-.64,1.47l-2.41,2.58-4.83,5.15L601,232.06l9.78-10.2,4.88-5.11,2.45-2.55a2.1,2.1,0,0,0,.5-2.58,7.38,7.38,0,0,0-.52-.74L616,208.05l-.53-.7a4.39,4.39,0,0,1-.48-.7,2.19,2.19,0,0,1-.2-.8l-.13-.87-.54-3.49-.26-1.75a5.19,5.19,0,0,1-.1-.83,4.06,4.06,0,0,1,.17-.81l1.81-6.83a2.4,2.4,0,0,0-.13-1.92c-.36-.55-.69-1-1-1.48l-2-2.88-.49-.7a1.57,1.57,0,0,1-.23-.69c0-.52,0-1.16,0-1.73l0-3.53,0-1.77-.06-.53-.11-.43-.2-.86-.84-3.43-.42-1.72a12.18,12.18,0,0,0-.65-1.71l-1.39-3.24-.18-.41a.08.08,0,0,0,0,0l1.71-.26,1.42-.22a2.61,2.61,0,0,1,1.61,0,1.62,1.62,0,0,1,.66.56l.53.86,1.16,1.88.62,1,.33.53a2.18,2.18,0,0,0,.47.49l2.23,1.42,1.17.75a1.82,1.82,0,0,0,.72.29,5,5,0,0,0,.75,0h2.23a1.46,1.46,0,0,1,.65.14,1.44,1.44,0,0,1,.54.41c.13.16.27.41.42.62l.86,1.34.88,1.36.45.69a2,2,0,0,0,.6.67,2.54,2.54,0,0,0,.84.36l.82.22,1.65.46,1.67.46.84.23a1.77,1.77,0,0,1,.72.33,1.43,1.43,0,0,1,.45.61c.09.23.17.54.26.81l.51,1.66a7.85,7.85,0,0,1,.09,1.64v3.33c0,.28,0,.53,0,.85a2,2,0,0,0,.32.84,2.07,2.07,0,0,0,.65.6,1.75,1.75,0,0,1,.61.4,2.52,2.52,0,0,1,.54,1.31c.45,2,1,3.86,1.48,5.62.24.88.47,1.72.75,2.52.13.41.26.8.38,1.19a2.45,2.45,0,0,1,.14,1.11c0,.78,0,1.51,0,2.21,0,.35,0,.7,0,1a5.67,5.67,0,0,1-.12.91c-.24,1.2-.53,2.22-.75,3.05s-.56,1.43-.64,1.89c0,.22-.07.42,0,.52a.16.16,0,0,0,.18,0s-.07,0-.15,0a.64.64,0,0,1,0-.47c.1-.45.42-1,.72-1.86s.56-1.84.83-3.05a4.82,4.82,0,0,0,.14-1c0-.34,0-.66,0-1,0-.69,0-1.43,0-2.2,0-.2,0-.38,0-.61a2.36,2.36,0,0,0-.14-.61l-.37-1.19c-.26-.8-.49-1.64-.72-2.52-.44-1.76-1-3.62-1.44-5.62-.06-.25-.1-.48-.19-.76a1.86,1.86,0,0,0-.45-.75,2.06,2.06,0,0,0-.7-.47,1.6,1.6,0,0,1-.75-1.13c0-.22,0-.52,0-.79V183.6a7.23,7.23,0,0,0-.1-1.77l-.51-1.66c-.09-.29-.15-.54-.27-.86a2.25,2.25,0,0,0-.28-.47,33.37,33.37,0,0,0,4.62.49l1.23.07a15.56,15.56,0,0,0,2.54,2.15,15.65,15.65,0,0,0-2.3-2.52l0-.05H641l-1.3-.09a26.21,26.21,0,0,0-4.7-.08,1.66,1.66,0,0,0-.26-.27,2.14,2.14,0,0,0-.88-.41l-.84-.23-1.68-.47-1.64-.45-.82-.22a1.94,1.94,0,0,1-.7-.29,1.54,1.54,0,0,1-.49-.55l-.45-.69-.89-1.36-.87-1.33c-.15-.22-.26-.42-.45-.66a2,2,0,0,0-1.51-.7h-2.23a2,2,0,0,1-1.27-.25l-1.17-.74-2.22-1.4a2.65,2.65,0,0,1-.72-.91l-.64-1L614.13,165c-.19-.3-.38-.58-.55-.86a1.87,1.87,0,0,0-.79-.64,1.76,1.76,0,0,0-.92-.15c-.31,0-.56.1-.82.14l-1.42.26-1.72.33a3.54,3.54,0,0,0-.19-.33,2.31,2.31,0,0,0-.8-.72l-1.62-.78-3.19-1.52a1.45,1.45,0,0,1-.87-1,1.56,1.56,0,0,1,0-.69l.07-.88.16-1.76.08-.88a1.61,1.61,0,0,1,.16-.67l3.31-6.25a2.52,2.52,0,0,0,0-2.21l-.8-1.58-.41-.79a6.37,6.37,0,0,0-.55-.8l-1.05-1.42-1-1.42c-.34-.48-.74-.94-1-1.39l-.46-.76a1.17,1.17,0,0,1-.21-.57,1.45,1.45,0,0,1,.07-.63l.22-.85.46-1.71.22-.85a5.88,5.88,0,0,1,.22-.74,1.32,1.32,0,0,1,.35-.47l.67-.58,1.34-1.15,1.33-1.16L605,129l.33-.29a3.12,3.12,0,0,0,.39-.41c.76-1,1.38-1.94,2.08-2.91a3.15,3.15,0,0,0,.53-1,2.4,2.4,0,0,0,.13-.59l0-.45.14-1.76.27-3.53.13-1.76a1.38,1.38,0,0,1,.14-.54l.17-.24.27-.34,2.22-2.75,2.21-2.76a2.75,2.75,0,0,1,.58-.62h0a1.63,1.63,0,0,0,1.07,1.49,3.48,3.48,0,0,0,1.16.12,2,2,0,0,1,1.15.22,2.25,2.25,0,0,1,.74,1.06l.66,1.36c.45.93,1,2,1.45,3a1.23,1.23,0,0,1,0,.76,1.14,1.14,0,0,1-.16.36,1.79,1.79,0,0,0,.42,2.39c.6.37,1.14.64,1.73,1a1.91,1.91,0,0,0,1.07.29,8.33,8.33,0,0,0,1-.23,1.39,1.39,0,0,1,1.6.39,1.84,1.84,0,0,1,.33.82c.09.31.17.63.25.94a2,2,0,0,1,.12.85l-.15.92c-.09.61-.19,1.2-.28,1.79l-.51,3.31c-.08.52-.16,1-.23,1.5s-.09,1-.13,1.4c-.15,1.72-.28,3.14-.37,4.21a10.52,10.52,0,0,0-.08,1.55,10.13,10.13,0,0,0,.25-1.53l.51-4.2c.06-.44.11-.9.17-1.39s.16-1,.25-1.48c.17-1,.36-2.15.55-3.31.1-.58.2-1.17.3-1.78l.15-.93a2.25,2.25,0,0,0-.12-1l-.24-.94a2.3,2.3,0,0,0-.42-1,1.83,1.83,0,0,0-.95-.61,2.17,2.17,0,0,0-1.11.06,6.79,6.79,0,0,1-.94.21,1.33,1.33,0,0,1-.83-.23c-.57-.32-1.19-.64-1.68-.94a1.31,1.31,0,0,1-.49-1.44,1.53,1.53,0,0,1,.17-.37,1.52,1.52,0,0,0,.2-.47,1.7,1.7,0,0,0,0-1c-.52-1.13-1-2.07-1.51-3l-.69-1.36c-.12-.22-.2-.41-.35-.64a1.78,1.78,0,0,0-.53-.53,2.2,2.2,0,0,0-1.32-.24,3.09,3.09,0,0,1-1.08-.07,1.46,1.46,0,0,1-1-1.26V109l.21-.08,1.68-.55,3.36-1.09,1.67-.55a2.83,2.83,0,0,0,1.79-1.72,2.75,2.75,0,0,0,.16-.61.86.86,0,0,1,.06-.23,1.16,1.16,0,0,1,.26-.39,1.27,1.27,0,0,1,.41-.23l.81-.2,1.71-.43.43-.11a3.27,3.27,0,0,0,.57-.18,2.75,2.75,0,0,0,1-.78,2.83,2.83,0,0,0,.59-1.14l.11-.43.06-.21,0-.11a.94.94,0,0,1,.25-.37l.64-.55,2.69-2.28,2.7-2.29.7-.6a2.62,2.62,0,0,0,.52-.67l1,1,1.15,1.13a1.92,1.92,0,0,1,.33.46l.33.72,1.38,3,.34.74a4.66,4.66,0,0,0,.47.85,3.71,3.71,0,0,0,.74.74l.68.48,2.68,1.87c.23.15.43.32.76.5a3.46,3.46,0,0,0,1,.34l1.58.27c0,.25.06.62.11,1.08.12,1,.29,2.44.48,4.14v.07l.06,0,7.53,5.13V120l-.1.66-.53,3.59v0h0c0,1.56,0,3,0,4.45l-3.17,3.83c-1.89.82-3.41,1.53-4.43,2.09a9.12,9.12,0,0,0-1.15.71c-.26.19-.33.36-.31.36a2.56,2.56,0,0,1,.36-.28c.26-.16.66-.37,1.18-.63,1-.5,2.6-1.17,4.52-2h0l0,0,3.29-3.87,0-.06v-.07c0-1.42,0-2.93,0-4.51.17-1.16.34-2.36.53-3.58l.09-.67v0c0-1.52,0-3,0-4.39v-.12l-.1-.06-7.63-5.06c-.26-1.66-.46-3-.62-4-.07-.45-.13-.79-.18-1l3.15.53a2,2,0,0,1,1.06.56,1.43,1.43,0,0,1,.2.23l.25.33.48.66.48.67a3.23,3.23,0,0,0,.72.71,3.19,3.19,0,0,0,1.88.63h1.65a12.14,12.14,0,0,1,1.52,0,2.06,2.06,0,0,1,1.11.58,2,2,0,0,1,.37.52l.38.73.37.72a5.09,5.09,0,0,1,.33.67,2,2,0,0,1,0,1.27,2.26,2.26,0,0,1-.28.63,3.3,3.3,0,0,0-.32.93,3.23,3.23,0,0,0,.22,1.88l1.19,3,2.39,6.09a3.27,3.27,0,0,0,1.15,1.43l1.29,1,2.58,2a11.47,11.47,0,0,0,1.38,1l1.49.69,1.36.64c0,.19-.05.42-.08.71-.07.81-.17,2-.27,3.36v.07c.36,1.29.77,2.75,1.2,4.31-1.13,2.26-2.13,4.32-2.83,5.82a16,16,0,0,0-1.07,2.5,16.47,16.47,0,0,0,1.35-2.35c.79-1.48,1.84-3.54,3-5.82v0l0-.08,0-.09-1.27-4.35c0-1.38.09-2.53.1-3.33,0-.27,0-.48,0-.66a7.6,7.6,0,0,1,1.34.69c.34.3.74.77,1.1,1.14a3.09,3.09,0,0,0,1.48,1,3,3,0,0,0,.89.11H682l1.64,0,3.25,0a12.27,12.27,0,0,1,1.56.31l1.59.38,3.18.74a2.56,2.56,0,0,1,.88.38c-.05.32-.09,1.28-.12,2.72v0l0,0c.76,1.2,1.79,2.79,3,4.59l-.78,2.54-.85,2.83,0,.08,0,.07c1,2.17,1.83,4,2.45,5.35a14.69,14.69,0,0,0,1.07,2.08,13.21,13.21,0,0,0-.82-2.19c-.55-1.33-1.34-3.2-2.27-5.34.26-.87.55-1.79.84-2.75s.54-1.8.8-2.64l0-.1-.06-.08c-1.22-1.81-2.3-3.4-3.12-4.57,0-1.34-.07-2.26-.11-2.62.12.1.24.2.35.31.33.4.66.86,1,1.28l4,5.19,2,2.59a6.68,6.68,0,0,0,1.07,1.25,6.16,6.16,0,0,0,1.5.69l6.1,2.33Z" style="fill:#e0e0e0"></path><path d="M680.14,56.76c.84-6.14-7.82-11.19-14.33-11.71-3.1-.25-6.32.22-9.26-.8-6.37-2.22-8.92-10.45-15.13-13.07-4.65-2-10-.22-14.5,2s-9,5.12-14,5.44c-4.37.28-9.13-1.34-13,.8-2.85,1.59-4.35,4.88-7,6.82s-5.93,2.3-9.12,2.47-6.5.21-9.41,1.54-5.31,4.4-4.7,7.54Z" style="fill:#ebebeb"></path><path d="M680.14,56.76l-.55,0-1.62,0-6.31.1-23.4.31-78.5.88h-.22l0-.22a6.49,6.49,0,0,1,1.42-5.11,9.57,9.57,0,0,1,4.51-3.15c4.09-1.39,8.35-.8,12.29-1.53a11.7,11.7,0,0,0,5.42-2.26,38.71,38.71,0,0,0,4-4.35,11.74,11.74,0,0,1,2.25-2,8.68,8.68,0,0,1,2.77-1.14,20.2,20.2,0,0,1,5.8-.14,30.63,30.63,0,0,0,5.57.13A19.51,19.51,0,0,0,618.77,37c3.34-1.34,6.35-3.22,9.49-4.65A20.4,20.4,0,0,1,638,30.15a11.2,11.2,0,0,1,4.6,1.38,16.19,16.19,0,0,1,3.59,2.9c2.08,2.17,3.73,4.54,5.66,6.46a11.75,11.75,0,0,0,6.62,3.66c2.42.38,4.76.17,6.94.33a19,19,0,0,1,5.92,1.4,20.53,20.53,0,0,1,4.48,2.46,13.85,13.85,0,0,1,2.9,2.87A8.09,8.09,0,0,1,680,54.3a5.73,5.73,0,0,1,.17,1.84c0,.42-.05.62-.05.62s0-.23,0-.64a6.53,6.53,0,0,0-.22-1.79,8.23,8.23,0,0,0-1.33-2.63,13.84,13.84,0,0,0-2.89-2.8,20.67,20.67,0,0,0-4.45-2.39,18.74,18.74,0,0,0-5.84-1.34c-2.16-.15-4.5.08-7-.29a12.13,12.13,0,0,1-6.83-3.73c-2-1.94-3.63-4.31-5.69-6.44a15.81,15.81,0,0,0-3.51-2.82A10.81,10.81,0,0,0,638,30.58a20,20,0,0,0-9.52,2.17c-3.1,1.42-6.11,3.32-9.5,4.69a19.8,19.8,0,0,1-5.36,1.41,29.75,29.75,0,0,1-5.66-.12,19.8,19.8,0,0,0-5.65.14,8.22,8.22,0,0,0-2.6,1.07,11,11,0,0,0-2.15,1.9,38.94,38.94,0,0,1-4.07,4.4,12.21,12.21,0,0,1-5.64,2.37c-4.06.74-8.3.17-12.22,1.51a9.15,9.15,0,0,0-4.27,3A6,6,0,0,0,570,57.8l-.26-.21,78.34-.67,23.45-.16,6.36,0h1.66C679.94,56.74,680.14,56.76,680.14,56.76Z" style="fill:#263238"></path></g></svg>
